<svg id="svg" version="1.1" xmlns="http://www.w3.org/2000/svg" xmlns:xlink="http://www.w3.org/1999/xlink" width="400" height="200" viewBox="0, 0, 400,200"><g id="svgg"><path id="path0" d="M93.436 41.390 C 92.190 41.815,91.116 42.627,90.358 43.719 C 89.134 45.482,89.200 43.922,89.200 71.246 C 89.200 99.840,89.343 97.971,87.198 97.500 C 85.488 97.124,85.406 96.479,85.380 83.300 C 85.369 77.030,85.298 68.390,85.224 64.100 L 85.090 56.300 84.557 55.300 C 81.919 50.343,74.834 50.388,72.527 55.376 L 72.100 56.300 72.100 78.100 L 72.100 99.900 71.636 100.550 C 70.750 101.792,69.336 101.218,68.801 99.400 C 68.603 98.726,68.504 95.642,68.405 87.100 C 68.319 79.635,68.199 75.527,68.057 75.200 C 66.038 70.546,59.288 70.484,57.161 75.100 L 56.700 76.100 56.700 98.400 C 56.700 121.782,56.697 121.701,57.611 126.900 C 58.215 130.336,59.255 134.414,60.022 136.350 C 60.120 136.597,60.278 137.003,60.373 137.250 C 65.412 150.338,75.488 158.414,89.800 160.836 C 96.898 162.037,106.345 160.267,111.536 156.764 C 111.996 156.454,112.468 156.200,112.586 156.200 C 112.704 156.200,112.800 156.125,112.800 156.034 C 112.800 155.942,113.046 155.740,113.347 155.584 C 113.648 155.428,114.031 155.195,114.197 155.066 C 114.364 154.937,115.291 154.242,116.259 153.521 C 118.026 152.204,122.595 148.244,122.606 148.020 C 122.609 147.954,123.015 147.465,123.509 146.934 C 124.942 145.391,127.416 142.044,128.376 140.349 C 128.609 139.937,128.994 139.263,129.231 138.850 C 129.881 137.719,130.379 136.682,131.465 134.200 C 131.633 133.815,132.367 131.970,133.096 130.100 C 133.825 128.230,134.632 126.160,134.890 125.500 C 135.148 124.840,135.737 123.310,136.198 122.100 C 136.660 120.890,137.131 119.675,137.246 119.400 C 137.539 118.696,137.723 118.206,138.000 117.400 C 138.132 117.015,138.321 116.498,138.420 116.250 C 138.519 116.003,138.681 115.597,138.780 115.350 C 138.879 115.103,139.068 114.585,139.200 114.200 C 139.473 113.406,139.656 112.919,139.953 112.200 C 140.067 111.925,140.268 111.385,140.400 111.000 C 140.774 109.912,140.877 109.678,142.279 106.757 C 145.234 100.597,145.101 97.451,141.826 96.082 C 141.060 95.762,138.445 95.704,137.514 95.986 C 137.176 96.089,136.495 96.286,136.000 96.424 C 132.680 97.349,128.370 100.457,126.859 103.016 C 126.669 103.337,126.443 103.600,126.357 103.600 C 126.271 103.600,126.200 103.718,126.200 103.862 C 126.200 104.007,126.043 104.304,125.850 104.522 C 125.120 105.353,123.930 107.761,122.738 110.824 C 120.650 116.190,120.353 116.467,116.341 116.798 C 115.108 116.900,113.740 117.082,113.300 117.203 C 112.860 117.324,112.230 117.497,111.900 117.588 C 106.101 119.189,98.615 125.006,95.797 130.100 C 94.263 132.875,92.068 133.208,91.666 130.727 C 90.948 126.307,100.357 116.564,108.000 113.812 C 108.385 113.673,108.880 113.486,109.100 113.397 C 109.320 113.307,109.725 113.175,110.000 113.103 C 110.275 113.032,110.815 112.882,111.200 112.771 C 112.739 112.328,113.819 112.157,116.479 111.933 C 120.585 111.589,120.090 114.546,120.153 89.982 C 120.213 66.284,120.026 55.287,119.544 54.200 C 117.167 48.844,108.881 48.443,107.164 53.600 C 106.995 54.105,106.898 60.062,106.815 75.036 C 106.701 95.573,106.696 95.776,106.288 96.323 C 105.427 97.475,104.096 97.345,103.332 96.034 C 102.955 95.386,102.942 94.698,102.880 71.434 C 102.844 58.270,102.759 47.095,102.690 46.600 C 102.119 42.490,97.629 39.962,93.436 41.390 M225.353 59.308 C 222.812 60.003,220.190 62.050,219.213 64.100 C 218.951 64.650,218.661 65.256,218.568 65.447 C 218.041 66.536,218.761 71.800,219.438 71.800 C 219.527 71.800,219.600 71.933,219.600 72.095 C 219.600 72.531,221.755 74.646,222.847 75.283 C 226.142 77.202,230.168 76.457,233.099 73.384 C 236.779 69.525,236.259 64.038,231.897 60.708 C 231.051 60.062,230.624 59.833,229.141 59.228 C 228.425 58.936,226.571 58.976,225.353 59.308 M181.759 60.707 C 181.684 60.783,180.875 60.920,179.961 61.013 C 175.213 61.493,171.948 62.638,167.663 65.329 C 164.582 67.263,161.813 69.875,160.803 71.800 C 160.658 72.075,160.482 72.345,160.411 72.400 C 159.565 73.053,158.326 77.228,158.119 80.123 C 157.579 87.679,157.973 89.724,160.956 94.832 C 163.341 98.918,168.721 102.895,175.550 105.620 C 175.798 105.719,176.203 105.889,176.450 105.997 C 176.697 106.105,178.790 106.814,181.100 107.573 C 191.459 110.974,193.707 112.373,195.200 116.342 C 195.617 117.449,195.493 121.007,194.988 122.452 C 193.852 125.702,191.158 127.684,186.900 128.404 C 184.668 128.781,177.028 128.469,176.510 127.980 C 176.406 127.881,176.142 127.800,175.924 127.800 C 175.565 127.800,174.772 127.586,173.700 127.201 C 173.480 127.122,172.909 126.864,172.431 126.628 C 171.953 126.393,171.443 126.200,171.298 126.200 C 171.152 126.200,171.003 126.133,170.967 126.050 C 170.930 125.968,170.450 125.678,169.900 125.406 C 169.350 125.135,167.657 124.077,166.137 123.056 C 162.370 120.525,161.783 120.554,160.267 123.352 C 159.850 124.121,159.329 125.037,158.561 126.350 C 156.604 129.699,155.998 131.322,156.364 132.242 C 156.768 133.260,164.638 137.964,168.300 139.376 C 168.960 139.631,169.680 139.910,169.900 139.997 C 170.269 140.142,170.617 140.240,172.750 140.795 C 175.098 141.407,186.932 141.683,189.717 141.191 C 192.006 140.786,193.102 140.534,193.290 140.368 C 193.394 140.276,193.643 140.200,193.843 140.200 C 194.042 140.200,194.362 140.114,194.553 140.008 C 194.744 139.903,195.530 139.524,196.300 139.168 C 197.070 138.812,198.150 138.255,198.700 137.932 C 199.250 137.609,200.015 137.167,200.400 136.950 C 206.699 133.399,209.651 128.626,211.008 119.800 C 212.568 109.651,206.736 101.880,193.900 97.006 C 192.690 96.546,191.520 96.093,191.300 95.998 C 191.080 95.904,190.315 95.634,189.600 95.400 C 188.885 95.166,188.120 94.899,187.900 94.807 C 187.680 94.715,187.185 94.532,186.800 94.400 C 186.415 94.268,185.898 94.079,185.650 93.980 C 185.403 93.881,184.998 93.719,184.750 93.619 C 184.503 93.520,183.760 93.236,183.100 92.987 C 182.440 92.738,181.149 92.189,180.230 91.767 C 179.312 91.345,178.522 91.000,178.475 91.000 C 178.130 91.000,175.659 89.201,175.044 88.502 C 172.928 86.099,172.504 83.385,173.700 79.900 C 175.634 74.262,182.486 72.595,191.700 75.523 C 195.116 76.608,199.553 78.789,200.400 79.800 C 201.643 81.283,202.781 80.938,203.885 78.743 C 204.173 78.169,204.645 77.295,204.933 76.800 C 205.467 75.882,205.867 75.185,206.627 73.850 C 208.383 70.762,208.600 69.702,207.650 68.858 C 206.010 67.401,201.197 64.598,198.100 63.296 C 197.660 63.111,197.120 62.883,196.900 62.790 C 196.357 62.559,194.656 61.995,193.800 61.761 C 193.118 61.575,192.352 61.402,190.300 60.972 C 189.133 60.728,181.961 60.505,181.759 60.707 M247.727 61.927 C 247.437 62.217,247.197 62.510,247.193 62.577 C 247.098 64.168,247.074 131.442,247.167 134.543 C 247.314 139.462,247.306 139.433,248.697 139.911 C 249.775 140.282,288.183 140.328,288.834 139.959 C 289.776 139.426,289.787 139.362,289.794 134.180 C 289.800 128.890,289.701 128.194,288.828 127.451 L 288.300 127.002 275.677 127.001 L 263.055 127.000 262.552 126.497 L 262.049 125.994 261.898 103.847 C 261.815 91.666,261.810 77.695,261.887 72.800 C 262.083 60.411,262.755 61.400,254.140 61.400 L 248.255 61.400 247.727 61.927 M318.500 81.326 C 312.578 81.706,309.942 82.332,305.900 84.319 C 303.006 85.742,302.668 85.948,301.603 86.945 L 300.700 87.789 300.733 92.890 C 300.780 100.063,300.947 100.246,305.200 97.789 C 305.475 97.630,305.745 97.455,305.800 97.400 C 306.352 96.848,309.917 95.226,311.600 94.760 C 313.392 94.265,318.609 93.609,319.928 93.713 C 326.299 94.219,328.857 96.898,328.887 103.100 L 328.900 105.700 320.600 105.826 C 311.750 105.961,310.853 106.059,306.900 107.321 C 305.904 107.638,303.094 108.920,302.705 109.234 C 302.592 109.325,301.870 109.884,301.100 110.478 C 298.623 112.386,296.472 115.626,295.641 118.700 C 295.007 121.049,294.963 121.451,295.069 123.931 C 295.282 128.898,296.112 131.731,298.364 135.169 C 301.340 139.712,304.968 141.502,311.200 141.498 C 314.200 141.496,315.305 141.387,318.500 140.774 C 322.192 140.066,325.604 138.347,328.235 135.869 C 328.859 135.281,329.467 134.800,329.585 134.800 C 329.856 134.800,329.869 135.734,329.600 135.900 C 329.105 136.206,329.558 138.183,330.285 138.894 C 331.386 139.971,332.693 140.200,337.735 140.200 C 341.918 140.200,342.146 140.180,342.575 139.780 L 343.026 139.360 342.898 118.830 C 342.761 96.712,342.754 96.581,341.677 93.400 C 340.612 90.257,339.076 88.020,336.600 86.002 C 335.995 85.509,335.455 85.055,335.400 84.993 C 334.892 84.420,331.977 82.993,330.200 82.446 C 327.671 81.669,321.847 81.111,318.500 81.326 M226.509 84.747 C 221.099 84.805,220.904 84.820,220.459 85.238 L 220.000 85.670 220.000 112.461 L 220.000 139.253 220.437 139.632 C 221.136 140.238,221.579 140.270,227.463 140.130 C 233.373 139.990,233.991 139.890,234.192 139.041 C 234.251 138.788,234.255 135.188,234.200 131.041 C 234.145 126.893,234.181 115.641,234.280 106.036 C 234.471 87.369,234.438 86.435,233.539 85.348 C 232.976 84.667,233.092 84.677,226.509 84.747 M327.533 115.497 C 328.763 115.744,329.283 118.500,328.722 121.800 C 328.511 123.041,328.001 124.256,327.127 125.600 C 322.890 132.114,312.358 133.096,310.485 127.153 C 309.070 122.662,310.559 118.677,314.279 116.998 C 316.035 116.205,319.157 115.613,321.783 115.575 C 322.728 115.561,324.130 115.487,324.900 115.409 C 325.670 115.332,326.435 115.291,326.600 115.319 C 326.765 115.347,327.185 115.427,327.533 115.497 " stroke="none" fill="#0563ba" fill-rule="evenodd"></path><path id="path1" d="M0.000 100.000 L 0.000 200.000 200.000 200.000 L 400.000 200.000 400.000 100.000 L 400.000 0.000 200.000 0.000 L 0.000 0.000 0.000 100.000 M99.044 41.286 C 100.171 41.806,101.755 43.297,102.271 44.326 C 103.235 46.246,103.194 45.072,103.197 70.919 C 103.200 98.536,103.073 96.800,105.090 96.800 C 106.400 96.800,106.396 96.836,106.422 83.600 C 106.435 77.055,106.506 67.605,106.581 62.600 L 106.717 53.500 107.295 52.435 C 108.335 50.517,109.475 49.991,112.875 49.859 C 116.788 49.707,118.885 51.249,120.174 55.227 C 120.350 55.770,120.409 62.876,120.407 83.379 L 120.405 110.805 119.785 111.486 L 119.165 112.167 116.833 112.272 C 114.142 112.392,112.780 112.565,112.510 112.820 C 112.406 112.919,112.028 113.000,111.672 113.000 C 111.315 113.000,110.968 113.090,110.900 113.200 C 110.832 113.310,110.517 113.400,110.200 113.400 C 109.883 113.400,109.568 113.490,109.500 113.600 C 109.432 113.710,109.162 113.800,108.900 113.800 C 108.638 113.800,108.368 113.890,108.300 114.000 C 108.232 114.110,108.002 114.200,107.788 114.200 C 107.575 114.200,107.400 114.290,107.400 114.400 C 107.400 114.510,107.274 114.600,107.120 114.600 C 106.682 114.600,104.018 116.038,103.322 116.650 C 103.104 116.843,102.847 117.000,102.752 117.000 C 102.656 117.000,101.942 117.517,101.163 118.150 C 100.385 118.783,99.512 119.479,99.224 119.699 C 98.425 120.306,95.310 123.480,94.670 124.339 C 94.358 124.758,94.042 125.146,93.968 125.201 C 93.707 125.398,92.473 127.911,92.238 128.723 C 91.235 132.193,93.503 133.295,95.320 130.221 C 95.521 129.879,95.757 129.600,95.843 129.600 C 95.929 129.600,96.000 129.453,96.000 129.273 C 96.000 129.094,96.158 128.801,96.352 128.623 C 96.545 128.446,96.955 127.928,97.263 127.473 C 97.963 126.438,102.275 122.206,103.150 121.694 C 103.508 121.485,103.800 121.243,103.800 121.157 C 103.800 121.071,103.918 121.000,104.062 121.000 C 104.207 121.000,104.499 120.843,104.712 120.650 C 105.215 120.197,107.198 119.138,109.300 118.202 C 109.850 117.957,110.456 117.676,110.647 117.578 C 110.838 117.480,111.170 117.400,111.385 117.400 C 111.600 117.400,111.826 117.320,111.886 117.222 C 112.032 116.986,114.196 116.626,117.500 116.288 C 118.987 116.135,119.696 115.871,120.230 115.270 C 120.701 114.741,121.400 113.440,121.400 113.094 C 121.400 112.932,121.490 112.800,121.600 112.800 C 121.710 112.800,121.800 112.664,121.800 112.498 C 121.800 112.332,121.972 111.814,122.182 111.348 C 122.392 110.882,122.747 109.992,122.971 109.372 C 123.626 107.555,125.153 104.600,125.437 104.600 C 125.527 104.600,125.600 104.482,125.600 104.338 C 125.600 104.193,125.780 103.882,126.000 103.646 C 126.220 103.410,126.400 103.141,126.400 103.047 C 126.400 102.954,126.692 102.557,127.050 102.163 C 127.408 101.770,127.929 101.190,128.209 100.874 C 129.806 99.073,133.915 96.400,135.086 96.400 C 135.246 96.400,135.432 96.310,135.500 96.200 C 135.568 96.090,135.883 96.000,136.200 96.000 C 136.517 96.000,136.832 95.910,136.900 95.800 C 137.375 95.031,142.576 95.711,143.532 96.668 C 144.499 97.634,145.006 100.912,144.426 102.441 C 144.330 102.693,144.136 103.260,143.995 103.700 C 143.854 104.140,143.156 105.715,142.443 107.200 C 141.730 108.685,141.058 110.125,140.950 110.400 C 140.842 110.675,140.674 111.056,140.577 111.247 C 140.479 111.438,140.400 111.770,140.400 111.985 C 140.400 112.200,140.310 112.432,140.200 112.500 C 140.090 112.568,140.000 112.758,140.000 112.921 C 140.000 113.085,139.820 113.592,139.600 114.047 C 139.380 114.503,139.200 114.994,139.200 115.140 C 139.200 115.286,139.121 115.562,139.023 115.753 C 138.926 115.944,138.736 116.370,138.600 116.700 C 138.464 117.030,138.274 117.456,138.177 117.647 C 138.079 117.838,138.000 118.176,138.000 118.397 C 138.000 118.619,137.910 118.800,137.800 118.800 C 137.690 118.800,137.600 119.020,137.600 119.288 C 137.600 119.557,137.510 119.832,137.400 119.900 C 137.290 119.968,137.200 120.198,137.200 120.412 C 137.200 120.625,137.110 120.800,137.000 120.800 C 136.890 120.800,136.800 121.007,136.800 121.260 C 136.800 121.513,136.728 121.805,136.641 121.910 C 136.553 122.014,136.367 122.460,136.228 122.900 C 135.983 123.671,135.823 124.087,135.404 125.050 C 135.296 125.297,134.970 126.175,134.679 127.000 C 134.388 127.825,133.991 128.860,133.797 129.300 C 133.603 129.740,133.201 130.730,132.905 131.500 C 132.300 133.072,131.855 134.132,131.583 134.647 C 131.482 134.838,131.400 135.131,131.400 135.297 C 131.400 135.464,131.310 135.600,131.200 135.600 C 131.090 135.600,131.000 135.722,131.000 135.872 C 131.000 136.201,129.762 138.673,129.550 138.767 C 129.468 138.803,129.400 139.006,129.400 139.217 C 129.400 139.428,129.310 139.600,129.200 139.600 C 129.090 139.600,129.000 139.694,129.000 139.810 C 129.000 140.169,126.191 144.282,124.679 146.135 C 122.877 148.344,119.585 151.460,117.002 153.400 C 116.636 153.675,116.222 154.013,116.083 154.150 C 115.943 154.288,115.732 154.400,115.614 154.400 C 115.496 154.400,115.400 154.475,115.400 154.566 C 115.400 154.658,115.153 154.860,114.850 155.016 C 114.547 155.172,114.126 155.458,113.912 155.650 C 113.699 155.843,113.407 156.000,113.262 156.000 C 113.118 156.000,113.000 156.075,113.000 156.166 C 113.000 156.258,112.753 156.460,112.450 156.616 C 112.147 156.772,111.855 156.945,111.800 157.000 C 110.691 158.112,104.919 160.314,101.200 161.043 C 99.586 161.360,91.340 161.476,90.000 161.202 C 89.395 161.078,88.405 160.885,87.800 160.774 C 84.501 160.166,77.064 157.441,76.400 156.595 C 76.345 156.525,76.008 156.341,75.650 156.185 C 75.293 156.030,75.000 155.834,75.000 155.751 C 75.000 155.668,74.865 155.600,74.700 155.600 C 74.535 155.600,74.400 155.510,74.400 155.400 C 74.400 155.290,74.265 155.200,74.100 155.200 C 73.935 155.200,73.800 155.110,73.800 155.000 C 73.800 154.890,73.682 154.800,73.538 154.800 C 73.393 154.800,73.101 154.640,72.888 154.445 C 72.674 154.249,72.191 153.871,71.814 153.605 C 69.098 151.690,65.072 147.215,63.427 144.283 C 63.247 143.962,63.053 143.655,62.995 143.600 C 62.780 143.395,61.197 140.090,61.198 139.850 C 61.199 139.713,61.110 139.600,61.000 139.600 C 60.890 139.600,60.800 139.464,60.800 139.297 C 60.800 139.131,60.721 138.838,60.623 138.647 C 60.526 138.456,60.336 138.030,60.200 137.700 C 60.064 137.370,59.874 136.944,59.777 136.753 C 59.679 136.562,59.600 136.268,59.600 136.100 C 59.600 135.932,59.519 135.638,59.419 135.447 C 59.320 135.256,59.130 134.695,58.997 134.200 C 58.863 133.705,58.681 133.120,58.592 132.900 C 58.503 132.680,58.387 132.275,58.334 132.000 C 58.281 131.725,58.102 130.960,57.938 130.300 C 56.364 123.985,56.300 122.728,56.300 98.000 L 56.300 76.100 56.844 74.939 C 57.953 72.572,59.890 71.400,62.694 71.400 C 63.619 71.400,64.425 71.478,64.484 71.574 C 64.543 71.670,64.865 71.803,65.200 71.870 C 66.077 72.045,67.677 73.629,68.196 74.835 C 68.626 75.834,68.637 76.083,68.726 86.578 C 68.819 97.621,68.949 99.656,69.608 100.362 C 70.391 101.203,71.007 101.108,71.568 100.059 C 71.740 99.739,71.800 93.980,71.800 77.910 C 71.800 65.148,71.876 56.051,71.983 55.847 C 72.084 55.656,72.304 55.185,72.471 54.800 C 72.984 53.623,75.119 51.800,75.985 51.800 C 76.200 51.800,76.432 51.710,76.500 51.600 C 76.653 51.353,80.473 51.333,80.953 51.577 C 81.144 51.674,81.561 51.876,81.881 52.027 C 82.697 52.411,84.308 54.036,84.770 54.941 C 85.570 56.509,85.585 56.858,85.630 74.000 C 85.690 97.186,85.689 97.171,87.653 97.194 C 89.085 97.210,88.999 98.906,88.998 70.732 L 88.997 45.564 89.512 44.532 C 91.172 41.203,95.595 39.697,99.044 41.286 M230.503 59.416 C 234.281 61.238,236.838 66.079,235.769 69.386 C 233.856 75.301,227.975 78.313,223.122 75.862 C 220.030 74.300,217.135 69.194,217.976 66.784 C 218.099 66.430,218.200 65.976,218.200 65.776 C 218.200 64.530,220.723 61.194,222.407 60.213 C 225.243 58.563,228.141 58.277,230.503 59.416 M191.000 60.697 C 191.495 60.776,191.986 60.922,192.090 61.020 C 192.194 61.119,192.572 61.200,192.928 61.200 C 193.285 61.200,193.632 61.290,193.700 61.400 C 193.768 61.510,194.088 61.600,194.412 61.600 C 194.735 61.600,195.000 61.690,195.000 61.800 C 195.000 61.910,195.226 62.000,195.503 62.000 C 195.779 62.000,196.162 62.079,196.353 62.177 C 196.544 62.274,196.925 62.445,197.200 62.556 C 200.140 63.750,204.606 66.039,204.767 66.435 C 204.803 66.526,204.944 66.600,205.079 66.600 C 205.214 66.600,205.499 66.758,205.712 66.950 C 205.926 67.142,206.489 67.564,206.965 67.888 C 208.041 68.618,208.600 69.314,208.600 69.920 C 208.600 70.422,208.034 72.236,207.826 72.400 C 207.757 72.455,207.511 72.860,207.281 73.300 C 207.050 73.740,206.676 74.425,206.450 74.823 C 206.223 75.220,205.917 75.760,205.769 76.023 C 205.621 76.285,205.455 76.545,205.400 76.600 C 205.300 76.700,204.534 78.105,204.120 78.948 C 203.999 79.195,203.833 79.398,203.750 79.398 C 203.668 79.399,203.600 79.539,203.600 79.709 C 203.600 80.288,202.667 81.000,201.909 81.000 C 201.519 81.000,201.200 80.929,201.200 80.843 C 201.200 80.757,200.953 80.540,200.650 80.360 C 200.347 80.181,199.830 79.802,199.500 79.518 C 199.170 79.233,198.788 79.000,198.650 79.000 C 198.513 79.000,198.400 78.910,198.400 78.800 C 198.400 78.690,198.228 78.600,198.017 78.600 C 197.806 78.600,197.603 78.532,197.567 78.449 C 197.439 78.161,193.996 76.600,191.985 75.919 C 185.038 73.566,178.925 74.034,175.837 77.154 C 175.016 77.982,174.665 78.551,173.744 80.544 C 173.294 81.518,173.493 85.408,174.049 86.500 C 175.074 88.514,177.172 90.111,180.850 91.677 C 181.208 91.829,181.927 92.144,182.448 92.377 C 182.969 92.610,183.488 92.800,183.601 92.800 C 183.713 92.800,183.984 92.890,184.203 93.000 C 185.081 93.442,185.338 93.544,186.250 93.810 C 186.773 93.963,187.200 94.158,187.200 94.244 C 187.200 94.330,187.420 94.400,187.688 94.400 C 187.957 94.400,188.232 94.490,188.300 94.600 C 188.368 94.710,188.625 94.800,188.872 94.800 C 189.118 94.800,189.405 94.874,189.510 94.965 C 189.614 95.056,190.105 95.252,190.600 95.401 C 191.095 95.550,191.590 95.733,191.700 95.807 C 191.810 95.881,192.080 95.991,192.300 96.051 C 194.999 96.788,201.354 99.846,202.688 101.050 C 202.901 101.243,203.151 101.400,203.244 101.400 C 203.337 101.400,203.714 101.692,204.082 102.050 C 204.450 102.408,205.079 102.953,205.480 103.262 C 210.917 107.455,212.713 115.184,210.436 124.600 C 209.096 130.144,204.216 135.878,198.850 138.215 C 198.493 138.370,198.200 138.566,198.200 138.649 C 198.200 138.732,198.020 138.800,197.800 138.800 C 197.580 138.800,197.400 138.890,197.400 139.000 C 197.400 139.110,197.220 139.200,197.000 139.200 C 196.780 139.200,196.600 139.290,196.600 139.400 C 196.600 139.510,196.420 139.600,196.200 139.600 C 195.980 139.600,195.800 139.690,195.800 139.800 C 195.800 139.910,195.625 140.000,195.412 140.000 C 195.198 140.000,194.968 140.090,194.900 140.200 C 194.832 140.310,194.575 140.400,194.328 140.400 C 194.082 140.400,193.794 140.474,193.690 140.565 C 193.585 140.656,193.140 140.829,192.700 140.950 C 190.157 141.649,189.451 141.700,182.300 141.700 C 175.171 141.700,174.620 141.661,171.900 140.966 C 171.460 140.853,170.944 140.680,170.753 140.581 C 170.562 140.481,170.230 140.400,170.015 140.400 C 169.800 140.400,169.568 140.310,169.500 140.200 C 169.432 140.090,169.210 140.000,169.007 140.000 C 168.804 140.000,168.292 139.831,167.869 139.624 C 164.409 137.930,162.183 136.783,162.000 136.600 C 161.945 136.545,161.720 136.402,161.500 136.281 C 160.759 135.876,160.122 135.501,159.910 135.346 C 159.795 135.261,158.988 134.721,158.118 134.146 C 155.230 132.237,155.198 131.393,157.846 126.929 C 158.181 126.363,158.611 125.630,158.800 125.300 C 158.989 124.970,159.385 124.295,159.681 123.800 C 159.976 123.305,160.269 122.743,160.332 122.550 C 160.395 122.358,160.526 122.200,160.623 122.200 C 160.720 122.200,160.800 122.079,160.800 121.931 C 160.800 120.839,163.787 120.599,164.600 121.626 C 165.249 122.444,173.010 126.800,173.820 126.800 C 174.016 126.800,174.232 126.890,174.300 127.000 C 174.368 127.110,174.638 127.200,174.900 127.200 C 175.162 127.200,175.432 127.290,175.500 127.400 C 175.568 127.510,175.915 127.600,176.272 127.600 C 176.628 127.600,177.006 127.680,177.110 127.778 C 177.779 128.406,187.624 128.407,188.290 127.779 C 188.394 127.681,188.643 127.600,188.842 127.600 C 189.589 127.600,191.785 126.356,192.902 125.300 C 193.635 124.606,194.800 122.524,194.800 121.906 C 194.800 121.641,194.890 121.368,195.000 121.300 C 195.113 121.230,195.200 120.269,195.200 119.100 C 195.200 117.931,195.113 116.970,195.000 116.900 C 194.890 116.832,194.798 116.534,194.796 116.238 C 194.793 115.942,194.615 115.475,194.400 115.200 C 194.185 114.925,194.007 114.630,194.004 114.545 C 193.998 114.310,192.240 112.600,192.005 112.600 C 191.892 112.600,191.800 112.527,191.800 112.437 C 191.800 112.348,191.463 112.091,191.050 111.868 C 190.638 111.644,189.967 111.272,189.561 111.040 C 188.625 110.507,184.743 109.099,180.600 107.791 C 179.445 107.426,178.414 107.054,178.310 106.964 C 178.205 106.874,177.957 106.800,177.757 106.800 C 177.558 106.800,177.238 106.721,177.047 106.623 C 176.670 106.431,175.737 106.035,175.100 105.797 C 174.221 105.467,169.496 103.096,169.433 102.953 C 169.397 102.869,169.276 102.800,169.166 102.800 C 168.265 102.800,162.000 97.617,162.000 96.871 C 162.000 96.803,161.843 96.600,161.650 96.421 C 161.458 96.242,161.188 95.894,161.050 95.648 C 160.913 95.402,160.688 94.998,160.550 94.750 C 160.413 94.502,160.253 94.255,160.196 94.200 C 160.081 94.090,158.842 91.534,158.596 90.900 C 157.697 88.585,157.556 87.419,157.665 83.200 C 157.721 81.055,157.862 78.805,157.978 78.200 C 158.094 77.595,158.247 76.762,158.317 76.348 C 158.387 75.935,158.524 75.547,158.622 75.486 C 158.720 75.426,158.800 75.246,158.800 75.086 C 158.800 72.261,164.559 66.363,170.006 63.610 C 170.938 63.139,171.856 62.674,172.047 62.577 C 172.238 62.479,172.531 62.400,172.697 62.400 C 172.864 62.400,173.000 62.310,173.000 62.200 C 173.000 62.090,173.220 62.000,173.488 62.000 C 173.757 62.000,174.032 61.910,174.100 61.800 C 174.168 61.690,174.470 61.600,174.772 61.600 C 175.073 61.600,175.405 61.519,175.510 61.420 C 175.698 61.243,176.315 61.133,178.737 60.842 C 179.417 60.760,180.042 60.624,180.127 60.540 C 180.310 60.356,189.718 60.492,191.000 60.697 M256.400 61.029 C 260.924 61.285,261.075 61.330,261.762 62.617 L 262.200 63.438 262.200 94.030 C 262.200 125.421,262.218 126.198,262.970 126.509 C 263.152 126.584,268.984 126.669,275.930 126.697 C 289.749 126.755,289.061 126.693,289.759 127.933 C 290.032 128.418,290.074 129.293,290.048 133.969 L 290.018 139.438 289.459 139.919 L 288.900 140.400 280.200 140.450 C 256.176 140.589,248.151 140.405,247.500 139.701 C 246.790 138.933,246.800 139.496,246.801 100.553 L 246.802 62.500 247.278 61.905 C 248.159 60.803,249.733 60.652,256.400 61.029 M326.100 81.218 C 329.693 81.733,334.079 83.267,335.200 84.401 C 335.255 84.457,335.636 84.752,336.046 85.058 C 337.075 85.825,339.010 87.756,339.595 88.600 C 339.862 88.985,340.138 89.345,340.208 89.400 C 340.953 89.985,342.370 93.959,342.883 96.900 C 343.387 99.795,343.421 139.423,342.919 139.978 C 342.438 140.510,333.175 140.629,331.718 140.122 C 330.120 139.566,329.200 138.331,329.200 136.743 C 329.200 136.158,329.313 135.560,329.450 135.413 C 330.083 134.738,328.952 135.575,327.915 136.550 C 327.300 137.128,326.708 137.600,326.599 137.600 C 326.489 137.600,326.400 137.673,326.400 137.763 C 326.400 137.935,325.480 138.471,323.500 139.451 C 322.840 139.778,322.144 140.126,321.953 140.223 C 321.762 140.320,321.430 140.400,321.215 140.400 C 321.000 140.400,320.774 140.480,320.714 140.578 C 320.653 140.676,320.310 140.807,319.952 140.870 C 319.593 140.932,318.805 141.078,318.200 141.194 C 314.523 141.898,309.677 142.182,307.717 141.808 C 306.142 141.508,304.949 141.173,304.710 140.965 C 304.605 140.874,304.358 140.800,304.160 140.800 C 303.962 140.800,303.799 140.733,303.798 140.650 C 303.796 140.567,303.415 140.320,302.950 140.100 C 301.185 139.264,297.991 135.617,296.821 133.100 C 296.565 132.550,296.276 131.944,296.178 131.753 C 296.080 131.562,296.000 131.224,296.000 131.003 C 296.000 130.781,295.910 130.600,295.800 130.600 C 295.690 130.600,295.600 130.335,295.600 130.012 C 295.600 129.688,295.510 129.368,295.400 129.300 C 295.290 129.232,295.200 128.782,295.200 128.300 C 295.200 127.818,295.110 127.368,295.000 127.300 C 294.879 127.225,294.800 125.769,294.800 123.600 C 294.800 121.431,294.879 119.975,295.000 119.900 C 295.110 119.832,295.200 119.472,295.200 119.100 C 295.200 118.728,295.290 118.368,295.400 118.300 C 295.510 118.232,295.600 117.957,295.600 117.688 C 295.600 117.420,295.690 117.200,295.800 117.200 C 295.910 117.200,296.000 117.082,296.000 116.939 C 296.000 115.942,298.358 112.415,300.028 110.912 C 304.795 106.624,308.788 105.572,320.763 105.448 L 328.825 105.365 328.736 103.332 C 328.645 101.267,328.501 100.220,328.212 99.500 C 327.406 97.498,326.427 96.169,325.350 95.615 C 325.048 95.460,324.800 95.258,324.800 95.166 C 324.800 95.075,324.625 95.000,324.412 95.000 C 324.198 95.000,323.977 94.925,323.921 94.834 C 323.640 94.379,321.591 94.165,318.500 94.269 C 314.351 94.408,312.285 94.734,310.100 95.594 C 309.447 95.850,306.908 97.083,306.800 97.196 C 306.745 97.253,306.520 97.398,306.300 97.519 C 305.349 98.039,304.893 98.307,304.800 98.400 C 303.813 99.387,301.454 99.718,300.945 98.940 C 300.124 97.688,299.862 89.422,300.588 87.727 C 300.965 86.849,302.544 85.417,303.150 85.405 C 303.288 85.402,303.400 85.310,303.400 85.200 C 303.400 85.090,303.572 85.000,303.783 85.000 C 303.994 85.000,304.197 84.932,304.233 84.848 C 304.292 84.714,307.245 83.219,308.300 82.789 C 310.670 81.824,313.960 81.209,318.300 80.921 C 319.859 80.817,324.550 80.996,326.100 81.218 M233.063 84.432 C 233.303 84.559,233.635 84.849,233.800 85.075 C 234.623 86.205,234.624 86.242,234.563 102.600 C 234.531 111.235,234.539 123.033,234.581 128.818 L 234.658 139.336 233.960 139.868 L 233.262 140.400 227.022 140.400 C 220.825 140.400,220.779 140.397,220.311 139.950 L 219.839 139.500 219.694 131.000 C 219.521 120.910,219.522 117.858,219.702 99.506 C 219.848 84.571,219.811 85.060,220.836 84.495 C 221.468 84.147,232.419 84.090,233.063 84.432 M320.400 116.000 C 320.125 116.088,319.456 116.169,318.914 116.180 C 318.372 116.191,317.652 116.284,317.314 116.386 C 316.976 116.489,316.295 116.683,315.800 116.818 C 311.793 117.907,309.833 120.857,310.407 124.936 C 310.884 128.327,311.667 129.464,314.092 130.287 C 318.760 131.872,325.449 128.940,327.413 124.450 C 327.570 124.093,327.766 123.800,327.849 123.800 C 327.932 123.800,328.000 123.593,328.000 123.340 C 328.000 123.087,328.081 122.794,328.179 122.690 C 328.536 122.312,328.760 118.590,328.505 117.300 C 328.209 115.812,328.169 115.797,324.319 115.820 C 322.439 115.831,320.675 115.912,320.400 116.000 " stroke="none" fill="#fbfbfb" fill-rule="evenodd"></path><path id="path2" d="M95.250 40.943 C 95.553 40.989,96.048 40.989,96.350 40.943 C 96.653 40.897,96.405 40.860,95.800 40.860 C 95.195 40.860,94.948 40.897,95.250 40.943 M113.050 49.938 C 113.243 49.988,113.558 49.988,113.750 49.938 C 113.942 49.888,113.785 49.846,113.400 49.846 C 113.015 49.846,112.858 49.888,113.050 49.938 M77.746 51.544 C 78.101 51.589,78.731 51.589,79.146 51.546 C 79.560 51.503,79.270 51.467,78.500 51.466 C 77.730 51.465,77.390 51.500,77.746 51.544 M83.200 53.300 C 83.573 53.685,83.923 54.000,83.978 54.000 C 84.033 54.000,83.773 53.685,83.400 53.300 C 83.027 52.915,82.677 52.600,82.622 52.600 C 82.567 52.600,82.827 52.915,83.200 53.300 M106.664 56.000 C 106.664 56.715,106.700 57.008,106.745 56.650 C 106.789 56.292,106.789 55.708,106.745 55.350 C 106.700 54.992,106.664 55.285,106.664 56.000 M120.270 58.200 C 120.270 59.135,120.304 59.517,120.346 59.050 C 120.389 58.583,120.389 57.817,120.346 57.350 C 120.304 56.883,120.270 57.265,120.270 58.200 M85.489 63.900 C 85.489 67.420,85.517 68.832,85.550 67.037 C 85.583 65.243,85.583 62.363,85.550 60.637 C 85.516 58.912,85.489 60.380,85.489 63.900 M226.750 58.945 C 227.107 58.989,227.693 58.989,228.050 58.945 C 228.407 58.900,228.115 58.864,227.400 58.864 C 226.685 58.864,226.393 58.900,226.750 58.945 M182.350 60.546 C 182.817 60.589,183.583 60.589,184.050 60.546 C 184.518 60.504,184.135 60.470,183.200 60.470 C 182.265 60.470,181.883 60.504,182.350 60.546 M187.150 60.545 C 187.508 60.589,188.093 60.589,188.450 60.545 C 188.808 60.500,188.515 60.464,187.800 60.464 C 187.085 60.464,186.793 60.500,187.150 60.545 M103.079 65.000 C 103.079 66.595,103.111 67.248,103.149 66.450 C 103.186 65.653,103.186 64.348,103.149 63.550 C 103.111 62.752,103.079 63.405,103.079 65.000 M120.277 64.800 C 120.277 66.175,120.309 66.737,120.348 66.050 C 120.387 65.362,120.387 64.237,120.348 63.550 C 120.309 62.863,120.277 63.425,120.277 64.800 M218.050 67.700 C 218.053 68.140,218.094 68.296,218.141 68.048 C 218.189 67.799,218.187 67.439,218.137 67.248 C 218.087 67.056,218.048 67.260,218.050 67.700 M71.895 84.400 C 71.895 92.705,71.920 96.103,71.950 91.950 C 71.980 87.798,71.980 81.003,71.950 76.850 C 71.920 72.698,71.895 76.095,71.895 84.400 M262.079 72.100 C 262.079 73.640,262.111 74.244,262.149 73.441 C 262.187 72.639,262.186 71.379,262.148 70.641 C 262.110 69.904,262.079 70.560,262.079 72.100 M246.886 74.000 C 246.886 76.475,246.914 77.488,246.949 76.250 C 246.984 75.013,246.984 72.987,246.949 71.750 C 246.914 70.513,246.886 71.525,246.886 74.000 M103.092 83.400 C 103.092 88.075,103.118 89.988,103.150 87.650 C 103.182 85.313,103.182 81.488,103.150 79.150 C 103.118 76.813,103.092 78.725,103.092 83.400 M68.446 77.600 C 68.446 77.985,68.488 78.142,68.538 77.950 C 68.588 77.758,68.588 77.442,68.538 77.250 C 68.488 77.058,68.446 77.215,68.446 77.600 M320.053 81.144 C 320.357 81.189,320.807 81.188,321.053 81.141 C 321.299 81.093,321.050 81.056,320.500 81.057 C 319.950 81.059,319.749 81.098,320.053 81.144 M68.485 87.100 C 68.485 89.520,68.514 90.483,68.549 89.239 C 68.585 87.995,68.584 86.015,68.549 84.839 C 68.514 83.663,68.485 84.680,68.485 87.100 M261.854 83.800 C 261.854 84.295,261.893 84.498,261.941 84.250 C 261.989 84.002,261.989 83.598,261.941 83.350 C 261.893 83.103,261.854 83.305,261.854 83.800 M223.862 84.550 C 225.381 84.584,227.811 84.584,229.262 84.549 C 230.713 84.515,229.470 84.487,226.500 84.488 C 223.530 84.488,222.343 84.516,223.862 84.550 M261.860 86.600 C 261.860 87.205,261.897 87.453,261.943 87.150 C 261.989 86.848,261.989 86.353,261.943 86.050 C 261.897 85.748,261.860 85.995,261.860 86.600 M337.792 86.850 C 338.620 87.733,338.800 87.892,338.800 87.742 C 338.800 87.710,338.373 87.282,337.850 86.792 L 336.900 85.900 337.792 86.850 M301.287 86.850 L 300.700 87.500 301.350 86.913 C 301.707 86.590,302.000 86.297,302.000 86.263 C 302.000 86.108,301.835 86.244,301.287 86.850 M261.884 91.700 C 261.884 93.900,261.913 94.827,261.949 93.761 C 261.985 92.694,261.985 90.894,261.949 89.761 C 261.914 88.627,261.884 89.500,261.884 91.700 M234.482 91.700 C 234.482 93.570,234.512 94.362,234.549 93.460 C 234.586 92.558,234.586 91.028,234.549 90.060 C 234.512 89.092,234.482 89.830,234.482 91.700 M68.662 94.500 C 68.663 95.160,68.700 95.406,68.745 95.046 C 68.789 94.687,68.789 94.147,68.743 93.846 C 68.697 93.546,68.661 93.840,68.662 94.500 M318.754 93.945 C 319.113 93.989,319.653 93.989,319.954 93.943 C 320.254 93.897,319.960 93.861,319.300 93.862 C 318.640 93.863,318.394 93.900,318.754 93.945 M300.462 95.900 C 300.463 96.560,300.500 96.806,300.545 96.446 C 300.589 96.087,300.589 95.547,300.543 95.246 C 300.497 94.946,300.461 95.240,300.462 95.900 M246.878 101.700 C 246.878 103.130,246.910 103.689,246.948 102.942 C 246.987 102.195,246.987 101.025,246.948 100.342 C 246.909 99.659,246.877 100.270,246.878 101.700 M262.083 103.100 C 262.084 105.190,262.113 106.018,262.149 104.940 C 262.185 103.861,262.185 102.151,262.149 101.140 C 262.113 100.128,262.083 101.010,262.083 103.100 M328.838 104.047 L 328.800 105.394 323.050 105.450 L 317.300 105.506 323.056 105.553 C 329.554 105.606,329.064 105.745,328.949 103.878 L 328.876 102.700 328.838 104.047 M206.192 104.250 C 207.020 105.133,207.200 105.292,207.200 105.142 C 207.200 105.110,206.773 104.682,206.250 104.192 L 205.300 103.300 206.192 104.250 M116.253 112.144 C 116.557 112.189,117.007 112.188,117.253 112.141 C 117.499 112.093,117.250 112.056,116.700 112.057 C 116.150 112.059,115.949 112.098,116.253 112.144 M219.683 117.700 C 219.683 119.680,219.713 120.463,219.749 119.440 C 219.786 118.417,219.785 116.797,219.749 115.840 C 219.712 114.883,219.682 115.720,219.683 117.700 M321.354 115.745 C 321.713 115.789,322.253 115.789,322.554 115.743 C 322.854 115.697,322.560 115.661,321.900 115.662 C 321.240 115.663,320.994 115.700,321.354 115.745 M56.454 117.400 C 56.454 117.895,56.493 118.097,56.541 117.850 C 56.589 117.603,56.589 117.197,56.541 116.950 C 56.493 116.703,56.454 116.905,56.454 117.400 M115.152 116.741 C 115.401 116.789,115.761 116.787,115.952 116.737 C 116.144 116.687,115.940 116.648,115.500 116.650 C 115.060 116.653,114.904 116.694,115.152 116.741 M195.264 119.000 C 195.264 119.715,195.300 120.008,195.345 119.650 C 195.389 119.293,195.389 118.708,195.345 118.350 C 195.300 117.993,195.264 118.285,195.264 119.000 M294.854 121.400 C 294.854 121.895,294.893 122.097,294.941 121.850 C 294.989 121.603,294.989 121.197,294.941 120.950 C 294.893 120.703,294.854 120.905,294.854 121.400 M96.692 121.850 L 95.700 122.900 96.750 121.908 C 97.328 121.362,97.800 120.889,97.800 120.858 C 97.800 120.708,97.615 120.874,96.692 121.850 M234.257 122.300 C 234.259 122.850,234.298 123.051,234.344 122.747 C 234.389 122.443,234.388 121.993,234.341 121.747 C 234.293 121.501,234.256 121.750,234.257 122.300 M294.850 125.500 C 294.853 125.940,294.894 126.096,294.941 125.848 C 294.989 125.599,294.987 125.239,294.937 125.048 C 294.887 124.856,294.848 125.060,294.850 125.500 M192.687 125.650 L 192.100 126.300 192.750 125.713 C 193.108 125.390,193.400 125.097,193.400 125.063 C 193.400 124.908,193.235 125.044,192.687 125.650 M343.075 127.500 C 343.075 128.710,343.108 129.179,343.148 128.543 C 343.188 127.906,343.187 126.916,343.147 126.343 C 343.107 125.769,343.074 126.290,343.075 127.500 M263.750 126.941 C 263.998 126.989,264.403 126.989,264.650 126.941 C 264.897 126.893,264.695 126.854,264.200 126.854 C 263.705 126.854,263.502 126.893,263.750 126.941 M285.856 126.947 C 286.382 126.989,287.192 126.988,287.656 126.946 C 288.120 126.904,287.690 126.870,286.700 126.871 C 285.710 126.872,285.330 126.906,285.856 126.947 M289.850 129.700 C 289.853 130.140,289.894 130.296,289.941 130.048 C 289.989 129.799,289.987 129.439,289.937 129.248 C 289.887 129.056,289.848 129.260,289.850 129.700 M246.877 133.000 C 246.877 134.375,246.909 134.938,246.948 134.250 C 246.987 133.563,246.987 132.438,246.948 131.750 C 246.909 131.063,246.877 131.625,246.877 133.000 M316.453 130.944 C 316.757 130.989,317.207 130.988,317.453 130.941 C 317.699 130.893,317.450 130.856,316.900 130.857 C 316.350 130.859,316.149 130.898,316.453 130.944 M206.087 132.450 L 205.500 133.100 206.150 132.513 C 206.756 131.965,206.892 131.800,206.737 131.800 C 206.703 131.800,206.410 132.093,206.087 132.450 M289.876 137.000 C 289.876 138.265,289.908 138.782,289.948 138.150 C 289.987 137.518,289.987 136.483,289.948 135.850 C 289.908 135.218,289.876 135.735,289.876 137.000 M223.059 140.349 C 223.917 140.386,225.267 140.386,226.059 140.348 C 226.852 140.310,226.150 140.280,224.500 140.280 C 222.850 140.280,222.202 140.311,223.059 140.349 M257.850 140.349 C 259.032 140.385,260.968 140.385,262.150 140.349 C 263.332 140.314,262.365 140.285,260.000 140.285 C 257.635 140.285,256.668 140.314,257.850 140.349 M274.950 140.350 C 277.398 140.382,281.403 140.382,283.850 140.350 C 286.298 140.318,284.295 140.292,279.400 140.292 C 274.505 140.292,272.502 140.318,274.950 140.350 M335.450 140.349 C 336.632 140.385,338.568 140.385,339.750 140.349 C 340.933 140.314,339.965 140.285,337.600 140.285 C 335.235 140.285,334.268 140.314,335.450 140.349 M176.750 141.541 C 176.998 141.589,177.403 141.589,177.650 141.541 C 177.898 141.493,177.695 141.454,177.200 141.454 C 176.705 141.454,176.503 141.493,176.750 141.541 M187.250 141.538 C 187.442 141.588,187.758 141.588,187.950 141.538 C 188.143 141.488,187.985 141.446,187.600 141.446 C 187.215 141.446,187.058 141.488,187.250 141.538 M68.400 150.463 C 68.400 150.497,68.692 150.790,69.050 151.113 L 69.700 151.700 69.113 151.050 C 68.565 150.444,68.400 150.308,68.400 150.463 " stroke="none" fill="#95c4e5" fill-rule="evenodd"></path><path id="path3" d="M110.922 50.164 C 110.867 50.254,111.086 50.289,111.411 50.241 C 111.735 50.194,112.000 50.120,112.000 50.077 C 112.000 49.925,111.021 50.003,110.922 50.164 M106.866 55.900 C 106.867 56.670,106.903 56.960,106.946 56.546 C 106.989 56.131,106.989 55.501,106.944 55.146 C 106.900 54.790,106.865 55.130,106.866 55.900 M120.077 58.600 C 120.077 59.975,120.109 60.538,120.148 59.850 C 120.187 59.163,120.187 58.038,120.148 57.350 C 120.109 56.663,120.077 57.225,120.077 58.600 M85.274 59.600 C 85.274 60.755,85.307 61.227,85.347 60.650 C 85.388 60.073,85.388 59.127,85.347 58.550 C 85.307 57.973,85.274 58.445,85.274 59.600 M102.881 62.700 C 102.881 64.460,102.912 65.153,102.949 64.241 C 102.986 63.328,102.986 61.888,102.948 61.041 C 102.911 60.193,102.881 60.940,102.881 62.700 M180.700 60.800 C 180.190 61.019,180.716 61.019,181.400 60.800 C 181.802 60.671,181.822 60.639,181.500 60.634 C 181.280 60.631,180.920 60.705,180.700 60.800 M188.817 60.672 C 188.863 60.711,189.170 60.804,189.500 60.878 C 189.938 60.976,190.019 60.957,189.800 60.809 C 189.530 60.626,188.616 60.499,188.817 60.672 M120.074 63.200 C 120.074 64.355,120.107 64.828,120.147 64.250 C 120.188 63.673,120.188 62.727,120.147 62.150 C 120.107 61.573,120.074 62.045,120.074 63.200 M85.284 65.900 C 85.284 68.100,85.313 69.027,85.349 67.961 C 85.385 66.894,85.385 65.094,85.349 63.961 C 85.314 62.827,85.284 63.700,85.284 65.900 M106.646 64.000 C 106.646 64.385,106.688 64.543,106.738 64.350 C 106.788 64.158,106.788 63.843,106.738 63.650 C 106.688 63.458,106.646 63.615,106.646 64.000 M106.695 80.500 C 106.695 88.420,106.720 91.631,106.750 87.635 C 106.780 83.640,106.780 77.160,106.750 73.235 C 106.720 69.311,106.695 72.580,106.695 80.500 M247.090 78.500 C 247.090 82.460,247.117 84.108,247.150 82.163 C 247.182 80.218,247.182 76.978,247.150 74.963 C 247.117 72.948,247.090 74.540,247.090 78.500 M261.883 75.300 C 261.883 77.280,261.913 78.063,261.949 77.040 C 261.986 76.017,261.985 74.397,261.949 73.440 C 261.912 72.483,261.882 73.320,261.883 75.300 M232.887 73.650 L 232.300 74.300 232.950 73.713 C 233.556 73.165,233.692 73.000,233.537 73.000 C 233.503 73.000,233.210 73.293,232.887 73.650 M183.155 74.147 C 183.626 74.189,184.346 74.188,184.755 74.145 C 185.165 74.102,184.780 74.068,183.900 74.069 C 183.020 74.069,182.685 74.104,183.155 74.147 M85.450 75.100 C 85.453 75.540,85.494 75.696,85.541 75.448 C 85.589 75.199,85.587 74.839,85.537 74.648 C 85.487 74.456,85.448 74.660,85.450 75.100 M72.094 87.100 C 72.094 93.810,72.119 96.526,72.150 93.136 C 72.181 89.745,72.181 84.255,72.150 80.936 C 72.119 77.616,72.094 80.390,72.094 87.100 M102.889 82.200 C 102.889 85.665,102.916 87.083,102.950 85.350 C 102.983 83.618,102.983 80.783,102.950 79.050 C 102.916 77.317,102.889 78.735,102.889 82.200 M157.872 82.000 C 157.872 83.045,157.906 83.473,157.947 82.950 C 157.988 82.428,157.988 81.573,157.947 81.050 C 157.906 80.528,157.872 80.955,157.872 82.000 M317.250 81.346 C 317.663 81.389,318.338 81.389,318.750 81.346 C 319.163 81.303,318.825 81.267,318.000 81.267 C 317.175 81.267,316.838 81.303,317.250 81.346 M321.850 81.338 C 322.043 81.388,322.358 81.388,322.550 81.338 C 322.743 81.288,322.585 81.246,322.200 81.246 C 321.815 81.246,321.658 81.288,321.850 81.338 M324.050 81.338 C 324.243 81.388,324.558 81.388,324.750 81.338 C 324.943 81.288,324.785 81.246,324.400 81.246 C 324.015 81.246,323.858 81.288,324.050 81.338 M313.552 81.741 C 313.801 81.789,314.161 81.787,314.352 81.737 C 314.544 81.687,314.340 81.648,313.900 81.650 C 313.460 81.653,313.304 81.694,313.552 81.741 M223.850 84.750 C 225.363 84.783,227.838 84.783,229.350 84.750 C 230.863 84.716,229.625 84.688,226.600 84.688 C 223.575 84.688,222.338 84.716,223.850 84.750 M157.846 87.000 C 157.846 87.385,157.888 87.543,157.938 87.350 C 157.988 87.158,157.988 86.843,157.938 86.650 C 157.888 86.458,157.846 86.615,157.846 87.000 M89.077 89.400 C 89.077 90.775,89.109 91.338,89.148 90.650 C 89.187 89.963,89.187 88.838,89.148 88.150 C 89.109 87.463,89.077 88.025,89.077 89.400 M300.488 88.660 C 300.433 88.802,300.414 90.175,300.445 91.710 L 300.502 94.500 300.601 91.450 C 300.698 88.448,300.686 88.143,300.488 88.660 M89.064 93.200 C 89.064 93.915,89.100 94.208,89.145 93.850 C 89.189 93.493,89.189 92.908,89.145 92.550 C 89.100 92.192,89.064 92.485,89.064 93.200 M68.457 94.500 C 68.459 95.050,68.498 95.251,68.544 94.947 C 68.589 94.643,68.588 94.193,68.541 93.947 C 68.493 93.701,68.456 93.950,68.457 94.500 M300.660 95.600 C 300.660 96.205,300.697 96.453,300.743 96.150 C 300.789 95.848,300.789 95.353,300.743 95.050 C 300.697 94.748,300.660 94.995,300.660 95.600 M342.329 95.800 C 342.487 96.663,342.601 96.825,342.597 96.183 C 342.595 95.918,342.505 95.565,342.397 95.400 C 342.259 95.189,342.239 95.308,342.329 95.800 M261.881 100.900 C 261.881 102.660,261.912 103.353,261.949 102.441 C 261.986 101.528,261.986 100.088,261.948 99.241 C 261.911 98.393,261.881 99.140,261.881 100.900 M247.078 100.700 C 247.078 102.130,247.110 102.689,247.148 101.942 C 247.187 101.195,247.187 100.025,247.148 99.342 C 247.109 98.659,247.077 99.270,247.078 100.700 M342.860 99.800 C 342.860 100.405,342.897 100.653,342.943 100.350 C 342.989 100.048,342.989 99.553,342.943 99.250 C 342.897 98.948,342.860 99.195,342.860 99.800 M342.893 112.300 C 342.893 118.020,342.919 120.331,342.950 117.436 C 342.981 114.541,342.981 109.861,342.950 107.036 C 342.919 104.211,342.893 106.580,342.893 112.300 M234.287 107.700 C 234.287 110.450,234.315 111.603,234.349 110.262 C 234.384 108.921,234.384 106.671,234.350 105.262 C 234.315 103.853,234.287 104.950,234.287 107.700 M323.000 105.600 L 317.100 105.709 322.938 105.755 C 326.664 105.784,328.821 105.728,328.900 105.600 C 328.968 105.490,328.996 105.420,328.962 105.445 C 328.928 105.470,326.245 105.540,323.000 105.600 M308.200 106.809 C 307.981 106.957,308.062 106.976,308.500 106.878 C 309.235 106.713,309.395 106.599,308.883 106.603 C 308.673 106.605,308.365 106.697,308.200 106.809 M116.946 111.944 C 117.301 111.989,117.931 111.989,118.346 111.946 C 118.760 111.903,118.470 111.867,117.700 111.866 C 116.930 111.865,116.590 111.900,116.946 111.944 M219.850 114.300 C 219.853 114.740,219.894 114.896,219.941 114.648 C 219.989 114.399,219.987 114.039,219.937 113.848 C 219.887 113.656,219.848 113.860,219.850 114.300 M324.050 115.538 C 324.243 115.588,324.558 115.588,324.750 115.538 C 324.943 115.488,324.785 115.446,324.400 115.446 C 324.015 115.446,323.858 115.488,324.050 115.538 M219.880 119.400 C 219.880 121.105,219.911 121.803,219.949 120.950 C 219.986 120.097,219.986 118.703,219.949 117.850 C 219.911 116.998,219.880 117.695,219.880 119.400 M56.667 120.000 C 56.667 120.825,56.703 121.163,56.746 120.750 C 56.789 120.338,56.789 119.663,56.746 119.250 C 56.703 118.838,56.667 119.175,56.667 120.000 M234.072 122.000 C 234.072 123.045,234.106 123.472,234.147 122.950 C 234.188 122.428,234.188 121.572,234.147 121.050 C 234.106 120.528,234.072 120.955,234.072 122.000 M310.072 123.800 C 310.072 124.845,310.106 125.272,310.147 124.750 C 310.188 124.228,310.188 123.373,310.147 122.850 C 310.106 122.328,310.072 122.755,310.072 123.800 M57.046 124.200 C 57.046 124.585,57.088 124.743,57.138 124.550 C 57.188 124.358,57.188 124.043,57.138 123.850 C 57.088 123.658,57.046 123.815,57.046 124.200 M91.654 130.200 C 91.654 130.695,91.693 130.898,91.741 130.650 C 91.789 130.403,91.789 129.998,91.741 129.750 C 91.693 129.503,91.654 129.705,91.654 130.200 M316.550 131.141 C 316.798 131.189,317.203 131.189,317.450 131.141 C 317.697 131.093,317.495 131.054,317.000 131.054 C 316.505 131.054,316.303 131.093,316.550 131.141 M247.082 135.100 C 247.082 136.970,247.112 137.762,247.149 136.860 C 247.186 135.958,247.186 134.428,247.149 133.460 C 247.112 132.492,247.082 133.230,247.082 135.100 M234.280 135.400 C 234.280 137.105,234.311 137.803,234.349 136.950 C 234.386 136.097,234.386 134.703,234.349 133.850 C 234.311 132.998,234.280 133.695,234.280 135.400 M231.200 140.000 L 229.100 140.122 231.138 140.161 C 232.326 140.184,233.228 140.117,233.300 140.000 C 233.368 139.890,233.396 139.818,233.362 139.839 C 233.328 139.861,232.355 139.933,231.200 140.000 M251.754 140.145 C 252.113 140.189,252.653 140.189,252.954 140.143 C 253.254 140.097,252.960 140.061,252.300 140.062 C 251.640 140.063,251.394 140.100,251.754 140.145 M306.000 141.191 C 306.165 141.303,306.473 141.395,306.683 141.397 C 307.195 141.401,307.035 141.287,306.300 141.122 C 305.862 141.024,305.781 141.043,306.000 141.191 M309.758 141.748 C 310.450 141.787,311.530 141.787,312.158 141.748 C 312.786 141.708,312.220 141.676,310.900 141.676 C 309.580 141.677,309.066 141.709,309.758 141.748 " stroke="none" fill="#6fb4dd" fill-rule="evenodd"></path><path id="path4" d="M93.850 40.938 C 94.043 40.988,94.358 40.988,94.550 40.938 C 94.743 40.888,94.585 40.846,94.200 40.846 C 93.815 40.846,93.658 40.888,93.850 40.938 M97.152 40.941 C 97.401 40.989,97.761 40.987,97.952 40.937 C 98.144 40.887,97.940 40.848,97.500 40.850 C 97.060 40.853,96.904 40.894,97.152 40.941 M90.829 42.688 C 90.263 43.286,89.800 43.839,89.800 43.916 C 89.800 43.993,90.168 43.638,90.618 43.127 C 91.068 42.615,91.628 42.063,91.863 41.899 C 92.097 41.734,92.192 41.600,92.074 41.600 C 91.955 41.600,91.395 42.090,90.829 42.688 M99.618 41.650 C 99.664 41.678,100.017 41.970,100.401 42.300 L 101.100 42.900 100.513 42.250 C 100.190 41.893,99.837 41.600,99.729 41.600 C 99.621 41.600,99.571 41.623,99.618 41.650 M102.952 51.669 C 102.981 54.766,103.030 57.975,103.062 58.800 C 103.094 59.625,103.136 57.195,103.157 53.400 C 103.177 49.605,103.128 46.396,103.047 46.269 C 102.966 46.141,102.923 48.571,102.952 51.669 M110.633 49.975 C 110.477 50.074,110.809 50.108,111.433 50.056 C 112.899 49.935,113.098 49.834,111.900 49.819 C 111.350 49.812,110.780 49.882,110.633 49.975 M114.352 49.941 C 114.601 49.989,114.961 49.987,115.152 49.937 C 115.344 49.887,115.140 49.848,114.700 49.850 C 114.260 49.853,114.104 49.894,114.352 49.941 M116.500 50.532 C 116.830 50.705,117.370 51.084,117.699 51.374 L 118.299 51.900 117.799 51.331 C 117.322 50.787,116.399 50.191,116.060 50.208 C 115.972 50.212,116.170 50.358,116.500 50.532 M108.300 51.118 L 107.700 51.633 108.350 51.203 C 108.708 50.966,109.000 50.734,109.000 50.686 C 109.000 50.537,108.915 50.589,108.300 51.118 M79.817 51.472 C 80.052 51.675,81.021 51.796,80.905 51.608 C 80.834 51.494,80.542 51.400,80.255 51.400 C 79.968 51.400,79.771 51.432,79.817 51.472 M106.938 53.150 C 106.800 53.392,106.554 54.910,106.671 54.794 C 106.798 54.669,107.188 53.000,107.091 53.000 C 107.054 53.000,106.985 53.067,106.938 53.150 M84.008 53.900 C 84.008 54.010,84.193 54.325,84.418 54.600 C 84.690 54.932,84.757 54.966,84.620 54.700 C 84.283 54.048,84.006 53.686,84.008 53.900 M120.129 55.800 C 120.287 56.663,120.401 56.825,120.397 56.183 C 120.395 55.917,120.305 55.565,120.197 55.400 C 120.059 55.189,120.039 55.308,120.129 55.800 M85.234 56.500 C 85.231 56.720,85.305 57.080,85.400 57.300 C 85.619 57.810,85.619 57.284,85.400 56.600 C 85.271 56.198,85.239 56.178,85.234 56.500 M225.000 59.003 C 224.789 59.141,224.908 59.161,225.400 59.071 C 226.263 58.913,226.425 58.799,225.783 58.803 C 225.518 58.805,225.165 58.895,225.000 59.003 M228.617 58.872 C 228.663 58.911,228.970 59.004,229.300 59.078 C 229.738 59.176,229.819 59.157,229.600 59.009 C 229.330 58.826,228.416 58.699,228.617 58.872 M120.254 60.600 C 120.254 61.095,120.293 61.298,120.341 61.050 C 120.389 60.803,120.389 60.398,120.341 60.150 C 120.293 59.903,120.254 60.105,120.254 60.600 M232.476 60.813 C 233.013 61.287,233.620 61.951,233.825 62.288 C 234.030 62.624,234.199 62.788,234.199 62.651 C 234.200 62.320,232.899 60.891,232.119 60.367 C 231.779 60.138,231.939 60.339,232.476 60.813 M180.000 60.606 C 179.790 60.746,179.971 60.766,180.600 60.675 C 181.720 60.512,181.880 60.399,180.983 60.403 C 180.608 60.405,180.165 60.496,180.000 60.606 M189.017 60.471 C 189.063 60.510,189.415 60.600,189.800 60.671 C 190.292 60.761,190.411 60.741,190.200 60.603 C 189.929 60.425,188.818 60.302,189.017 60.471 M177.400 61.009 C 177.181 61.157,177.262 61.176,177.700 61.078 C 178.435 60.913,178.595 60.799,178.083 60.803 C 177.873 60.805,177.565 60.897,177.400 61.009 M249.200 61.000 C 248.921 61.089,250.686 61.154,253.200 61.147 C 256.902 61.135,257.328 61.108,255.600 60.991 C 252.774 60.800,249.812 60.804,249.200 61.000 M234.700 63.600 C 234.871 63.930,235.055 64.200,235.110 64.200 C 235.165 64.200,235.071 63.930,234.900 63.600 C 234.729 63.270,234.545 63.000,234.490 63.000 C 234.435 63.000,234.529 63.270,234.700 63.600 M168.550 64.314 C 167.802 64.720,167.848 64.889,168.600 64.500 C 168.930 64.329,169.200 64.147,169.200 64.095 C 169.200 63.966,169.179 63.973,168.550 64.314 M203.200 65.582 C 203.475 65.807,203.790 65.992,203.900 65.992 C 204.114 65.994,203.752 65.717,203.100 65.380 C 202.834 65.243,202.868 65.310,203.200 65.582 M165.458 66.350 C 164.888 66.763,164.417 67.178,164.411 67.274 C 164.402 67.415,165.578 66.562,166.490 65.766 C 166.972 65.345,166.395 65.672,165.458 66.350 M235.634 66.400 C 235.644 66.920,235.959 67.773,235.966 67.300 C 235.969 67.080,235.895 66.720,235.800 66.500 C 235.695 66.255,235.630 66.216,235.634 66.400 M217.928 66.842 C 217.861 67.094,217.814 67.525,217.825 67.800 C 217.836 68.095,217.915 67.936,218.018 67.413 C 218.202 66.476,218.137 66.063,217.928 66.842 M207.797 68.701 C 208.593 69.661,208.661 69.723,208.443 69.298 C 208.330 69.077,208.026 68.717,207.769 68.499 C 207.317 68.117,207.318 68.124,207.797 68.701 M235.714 68.714 C 235.641 69.007,235.626 69.292,235.681 69.347 C 235.736 69.402,235.841 69.207,235.914 68.914 C 235.988 68.621,236.003 68.336,235.948 68.281 C 235.893 68.226,235.788 68.421,235.714 68.714 M106.400 82.540 C 106.345 89.822,106.368 95.712,106.451 95.629 C 106.535 95.545,106.580 89.587,106.551 82.389 L 106.500 69.300 106.400 82.540 M60.600 71.600 C 60.333 71.772,60.333 71.794,60.600 71.794 C 60.765 71.794,61.035 71.707,61.200 71.600 C 61.467 71.428,61.467 71.406,61.200 71.406 C 61.035 71.406,60.765 71.493,60.600 71.600 M66.893 73.200 C 67.432 73.805,67.914 74.345,67.963 74.400 C 68.013 74.455,67.959 74.320,67.843 74.100 C 67.727 73.880,67.245 73.340,66.773 72.900 C 65.926 72.111,65.927 72.116,66.893 73.200 M233.213 73.650 C 232.725 74.228,232.576 74.475,232.882 74.200 C 233.398 73.737,234.309 72.600,234.164 72.600 C 234.129 72.600,233.701 73.073,233.213 73.650 M206.726 74.050 L 206.367 74.700 206.779 74.200 C 207.144 73.757,207.307 73.400,207.143 73.400 C 207.112 73.400,206.924 73.692,206.726 74.050 M220.800 74.100 C 221.173 74.485,221.523 74.800,221.578 74.800 C 221.633 74.800,221.373 74.485,221.000 74.100 C 220.627 73.715,220.277 73.400,220.222 73.400 C 220.167 73.400,220.427 73.715,220.800 74.100 M182.750 74.347 C 183.328 74.388,184.273 74.388,184.850 74.347 C 185.428 74.307,184.955 74.274,183.800 74.274 C 182.645 74.274,182.173 74.307,182.750 74.347 M186.700 74.599 C 187.082 74.764,188.557 74.878,188.383 74.728 C 188.338 74.689,187.850 74.604,187.300 74.541 C 186.657 74.466,186.443 74.487,186.700 74.599 M262.094 87.100 C 262.094 93.920,262.119 96.739,262.150 93.364 C 262.181 89.990,262.181 84.410,262.150 80.964 C 262.119 77.519,262.094 80.280,262.094 87.100 M189.017 75.071 C 189.063 75.110,189.415 75.200,189.800 75.271 C 190.292 75.361,190.411 75.341,190.200 75.203 C 189.929 75.025,188.818 74.902,189.017 75.071 M222.000 75.210 C 222.694 75.681,223.089 75.818,222.600 75.418 C 222.325 75.193,222.010 75.008,221.900 75.008 C 221.790 75.007,221.835 75.098,222.000 75.210 M158.477 75.688 C 158.416 75.847,158.401 76.139,158.445 76.338 C 158.493 76.564,158.562 76.456,158.627 76.050 C 158.736 75.369,158.665 75.198,158.477 75.688 M68.424 76.217 C 68.437 76.593,68.521 77.170,68.610 77.500 C 68.717 77.895,68.735 77.689,68.662 76.900 C 68.539 75.577,68.386 75.140,68.424 76.217 M56.328 76.550 C 56.166 77.532,56.207 117.130,56.372 119.600 C 56.443 120.645,56.500 111.218,56.500 98.650 C 56.500 86.083,56.489 75.800,56.476 75.800 C 56.463 75.800,56.397 76.138,56.328 76.550 M224.017 76.272 C 224.063 76.311,224.370 76.404,224.700 76.478 C 225.138 76.576,225.219 76.557,225.000 76.409 C 224.730 76.226,223.816 76.099,224.017 76.272 M175.563 77.150 C 175.282 77.453,174.898 77.970,174.711 78.300 C 174.373 78.895,174.373 78.896,174.735 78.405 C 174.936 78.132,175.357 77.615,175.671 77.255 C 176.362 76.461,176.279 76.380,175.563 77.150 M226.352 76.741 C 226.601 76.789,226.961 76.787,227.152 76.737 C 227.344 76.687,227.140 76.648,226.700 76.650 C 226.260 76.653,226.104 76.694,226.352 76.741 M158.125 77.108 C 158.056 77.286,158.012 77.763,158.027 78.166 C 158.051 78.822,158.069 78.793,158.198 77.900 C 158.351 76.836,158.328 76.579,158.125 77.108 M68.471 79.900 C 68.470 80.890,68.504 81.320,68.546 80.856 C 68.588 80.392,68.589 79.582,68.547 79.056 C 68.506 78.530,68.472 78.910,68.471 79.900 M246.862 79.500 C 246.863 80.160,246.900 80.406,246.945 80.046 C 246.989 79.687,246.989 79.147,246.943 78.846 C 246.897 78.546,246.861 78.840,246.862 79.500 M157.684 83.800 C 157.684 86.055,157.714 86.978,157.749 85.850 C 157.785 84.723,157.785 82.877,157.749 81.750 C 157.714 80.623,157.684 81.545,157.684 83.800 M120.457 80.900 C 120.459 81.450,120.498 81.651,120.544 81.347 C 120.589 81.043,120.588 80.593,120.541 80.347 C 120.493 80.101,120.456 80.350,120.457 80.900 M317.600 80.983 C 316.497 81.061,317.574 81.114,320.666 81.134 C 323.287 81.151,325.402 81.139,325.366 81.108 C 325.207 80.972,319.141 80.873,317.600 80.983 M313.700 81.400 L 312.700 81.537 313.600 81.545 C 314.095 81.549,314.770 81.484,315.100 81.400 C 315.888 81.199,315.163 81.199,313.700 81.400 M326.300 81.399 C 326.682 81.564,328.157 81.678,327.983 81.528 C 327.938 81.489,327.450 81.404,326.900 81.341 C 326.257 81.266,326.043 81.287,326.300 81.399 M173.324 82.550 C 173.261 83.183,173.279 84.060,173.363 84.500 C 173.480 85.108,173.518 84.831,173.522 83.350 C 173.528 81.108,173.486 80.936,173.324 82.550 M311.400 81.805 C 311.015 81.892,310.430 82.061,310.100 82.181 L 309.500 82.398 310.100 82.290 C 311.359 82.063,312.220 81.846,312.341 81.725 C 312.488 81.578,312.345 81.590,311.400 81.805 M328.600 81.797 C 328.765 81.905,329.118 81.995,329.383 81.997 C 330.025 82.001,329.863 81.887,329.000 81.729 C 328.508 81.639,328.389 81.659,328.600 81.797 M246.892 90.500 C 246.892 95.340,246.918 97.291,246.950 94.836 C 246.982 92.381,246.982 88.421,246.950 86.036 C 246.918 83.651,246.892 85.660,246.892 90.500 M68.687 88.200 C 68.687 91.115,68.715 92.308,68.749 90.850 C 68.784 89.392,68.784 87.008,68.749 85.550 C 68.715 84.093,68.687 85.285,68.687 88.200 M307.046 83.290 C 306.423 83.634,306.228 83.853,306.706 83.671 C 307.452 83.388,308.099 83.002,307.800 83.021 C 307.635 83.031,307.296 83.152,307.046 83.290 M85.657 84.300 C 85.659 84.850,85.698 85.051,85.744 84.747 C 85.789 84.443,85.788 83.993,85.741 83.747 C 85.693 83.501,85.656 83.750,85.657 84.300 M333.600 83.610 C 334.294 84.081,334.689 84.218,334.200 83.818 C 333.925 83.593,333.610 83.408,333.500 83.408 C 333.390 83.407,333.435 83.498,333.600 83.610 M221.131 84.350 C 221.080 84.433,223.707 84.500,226.969 84.500 C 230.231 84.500,233.080 84.574,233.300 84.664 C 233.520 84.754,233.475 84.690,233.200 84.521 C 232.661 84.190,221.329 84.030,221.131 84.350 M336.100 85.274 C 336.540 85.670,336.974 85.995,337.065 85.997 C 337.156 85.999,336.976 85.795,336.665 85.545 C 335.620 84.705,335.293 84.548,336.100 85.274 M234.457 87.500 C 234.459 88.050,234.498 88.251,234.544 87.947 C 234.589 87.643,234.588 87.193,234.541 86.947 C 234.493 86.701,234.456 86.950,234.457 87.500 M174.817 87.924 C 175.083 88.267,175.340 88.511,175.389 88.468 C 175.439 88.424,175.221 88.143,174.907 87.844 L 174.334 87.300 174.817 87.924 M300.325 88.308 C 300.256 88.486,300.219 90.358,300.242 92.466 L 300.284 96.300 300.392 92.200 C 300.509 87.776,300.509 87.826,300.325 88.308 M175.600 88.697 C 175.600 88.906,176.423 89.570,177.100 89.907 C 177.430 90.071,177.529 90.092,177.319 89.953 C 177.110 89.814,176.637 89.443,176.269 89.129 C 175.901 88.815,175.600 88.621,175.600 88.697 M234.646 89.600 C 234.646 89.985,234.688 90.142,234.738 89.950 C 234.788 89.758,234.788 89.442,234.738 89.250 C 234.688 89.058,234.646 89.215,234.646 89.600 M340.739 90.697 C 340.922 91.081,341.107 91.359,341.151 91.316 C 341.242 91.225,340.635 90.000,340.498 90.000 C 340.448 90.000,340.556 90.314,340.739 90.697 M178.200 90.582 C 178.646 90.935,179.400 91.262,179.400 91.101 C 179.400 91.068,179.018 90.848,178.550 90.613 C 177.766 90.218,177.739 90.216,178.200 90.582 M85.641 92.900 C 85.634 94.000,85.694 95.067,85.774 95.272 C 85.855 95.476,85.889 94.756,85.851 93.672 C 85.753 90.897,85.657 90.544,85.641 92.900 M341.556 92.510 C 341.742 93.010,341.920 93.341,341.951 93.246 C 342.016 93.053,341.446 91.600,341.307 91.600 C 341.259 91.600,341.371 92.009,341.556 92.510 M318.250 94.147 C 318.773 94.188,319.628 94.188,320.150 94.147 C 320.673 94.106,320.245 94.072,319.200 94.072 C 318.155 94.072,317.728 94.106,318.250 94.147 M314.500 94.400 L 314.100 94.572 314.500 94.566 C 314.720 94.563,315.125 94.488,315.400 94.400 L 315.900 94.240 315.400 94.234 C 315.125 94.231,314.720 94.305,314.500 94.400 M324.800 95.147 C 324.800 95.342,325.607 95.860,325.726 95.741 C 325.773 95.693,325.585 95.505,325.306 95.322 C 325.028 95.140,324.800 95.061,324.800 95.147 M342.614 96.217 C 342.622 96.593,342.706 97.080,342.801 97.300 C 342.913 97.557,342.934 97.343,342.859 96.700 C 342.722 95.511,342.594 95.260,342.614 96.217 M234.493 107.600 C 234.493 113.595,234.519 116.047,234.550 113.050 C 234.581 110.052,234.581 105.147,234.550 102.150 C 234.519 99.153,234.493 101.605,234.493 107.600 M68.803 98.517 C 68.805 98.838,68.892 99.235,68.997 99.400 C 69.128 99.604,69.150 99.445,69.066 98.900 C 68.914 97.911,68.799 97.743,68.803 98.517 M197.200 98.079 C 197.200 98.135,197.538 98.336,197.950 98.524 C 198.363 98.713,198.768 98.902,198.850 98.945 C 198.933 98.988,199.000 98.978,199.000 98.921 C 199.000 98.865,198.663 98.664,198.250 98.476 C 197.838 98.287,197.433 98.098,197.350 98.055 C 197.268 98.012,197.200 98.022,197.200 98.079 M343.095 111.700 C 343.095 119.290,343.120 122.366,343.150 118.535 C 343.180 114.705,343.180 108.495,343.150 104.735 C 343.119 100.976,343.095 104.110,343.095 111.700 M130.600 98.700 C 130.227 98.975,129.981 99.200,130.052 99.200 C 130.124 99.200,130.514 98.975,130.919 98.700 C 131.324 98.425,131.571 98.200,131.467 98.200 C 131.363 98.200,130.973 98.425,130.600 98.700 M199.217 99.079 C 199.427 99.278,201.277 100.225,201.100 100.044 C 200.868 99.805,199.449 99.000,199.261 99.000 C 199.191 99.000,199.171 99.036,199.217 99.079 M164.535 99.655 C 165.593 100.506,165.902 100.660,165.100 99.937 C 164.660 99.540,164.226 99.212,164.135 99.208 C 164.044 99.203,164.224 99.405,164.535 99.655 M129.047 100.006 C 128.688 100.333,128.468 100.600,128.559 100.600 C 128.651 100.600,128.984 100.330,129.300 100.000 C 130.035 99.233,129.893 99.236,129.047 100.006 M126.634 102.619 C 126.264 103.212,126.428 103.257,126.859 102.680 C 127.057 102.416,127.146 102.200,127.057 102.200 C 126.969 102.200,126.778 102.389,126.634 102.619 M205.202 103.013 C 205.203 103.061,205.939 103.865,206.838 104.800 C 207.966 105.974,208.157 106.129,207.454 105.300 C 206.449 104.114,205.198 102.843,205.202 103.013 M313.200 105.609 C 312.595 105.688,313.270 105.707,314.700 105.651 C 316.130 105.595,317.338 105.515,317.383 105.474 C 317.519 105.353,314.390 105.453,313.200 105.609 M310.600 106.000 C 309.908 106.146,309.907 106.148,310.500 106.171 C 310.830 106.183,311.235 106.107,311.400 106.000 C 311.733 105.785,311.622 105.785,310.600 106.000 M308.700 106.400 C 308.146 106.541,308.139 106.554,308.600 106.573 C 308.875 106.585,309.235 106.507,309.400 106.400 C 309.740 106.180,309.564 106.180,308.700 106.400 M208.705 107.113 C 208.891 107.450,209.221 107.945,209.438 108.213 L 209.833 108.700 209.495 108.087 C 209.309 107.750,208.979 107.255,208.762 106.987 L 208.367 106.500 208.705 107.113 M305.667 107.361 C 305.208 107.548,304.758 107.775,304.667 107.867 C 304.575 107.958,304.995 107.838,305.600 107.600 C 306.205 107.362,306.738 107.129,306.783 107.083 C 306.953 106.913,306.476 107.032,305.667 107.361 M302.800 108.818 C 302.468 109.090,302.434 109.157,302.700 109.020 C 303.352 108.683,303.714 108.406,303.500 108.408 C 303.390 108.408,303.075 108.593,302.800 108.818 M185.113 109.283 C 186.122 109.722,186.763 109.829,185.900 109.414 C 185.460 109.203,184.965 109.027,184.800 109.023 C 184.635 109.019,184.776 109.136,185.113 109.283 M219.532 112.750 C 219.375 115.825,219.394 121.229,219.571 123.700 C 219.642 124.690,219.701 122.058,219.703 117.850 C 219.704 113.642,219.696 110.200,219.684 110.200 C 219.672 110.200,219.603 111.347,219.532 112.750 M299.482 111.450 C 298.632 112.338,297.506 113.706,298.123 113.100 C 298.790 112.446,300.647 110.400,300.574 110.400 C 300.526 110.400,300.034 110.873,299.482 111.450 M118.400 112.000 L 117.500 112.140 118.338 112.170 C 118.799 112.186,119.232 112.110,119.300 112.000 C 119.368 111.890,119.396 111.814,119.362 111.830 C 119.328 111.847,118.895 111.923,118.400 112.000 M113.900 112.400 C 113.648 112.508,113.611 112.572,113.800 112.572 C 113.965 112.572,114.280 112.495,114.500 112.400 C 114.752 112.292,114.789 112.228,114.600 112.228 C 114.435 112.228,114.120 112.305,113.900 112.400 M211.028 113.000 C 211.028 113.165,211.105 113.480,211.200 113.700 C 211.308 113.952,211.372 113.989,211.372 113.800 C 211.372 113.635,211.295 113.320,211.200 113.100 C 211.092 112.848,211.028 112.811,211.028 113.000 M192.800 113.074 C 192.800 113.153,193.025 113.443,193.300 113.718 C 193.575 113.993,193.800 114.140,193.800 114.044 C 193.800 113.948,193.575 113.658,193.300 113.400 C 193.025 113.142,192.800 112.995,192.800 113.074 M119.939 115.506 C 119.630 115.778,119.457 116.000,119.554 116.000 C 119.651 116.000,119.942 115.775,120.200 115.500 C 120.798 114.864,120.666 114.867,119.939 115.506 M104.300 115.800 C 103.970 116.019,103.790 116.196,103.900 116.194 C 104.101 116.191,105.188 115.412,105.000 115.406 C 104.945 115.404,104.630 115.581,104.300 115.800 M324.158 115.748 C 324.850 115.787,325.930 115.787,326.558 115.748 C 327.186 115.708,326.620 115.676,325.300 115.676 C 323.980 115.677,323.466 115.709,324.158 115.748 M319.000 116.000 L 317.900 116.135 318.900 116.147 C 319.450 116.154,320.125 116.088,320.400 116.000 C 321.014 115.803,320.605 115.803,319.000 116.000 M117.453 116.344 C 117.757 116.389,118.207 116.388,118.453 116.341 C 118.699 116.293,118.450 116.256,117.900 116.257 C 117.350 116.259,117.149 116.298,117.453 116.344 M316.700 116.400 C 316.146 116.541,316.139 116.554,316.600 116.573 C 316.875 116.585,317.235 116.507,317.400 116.400 C 317.740 116.180,317.564 116.180,316.700 116.400 M113.400 116.797 C 113.196 116.928,113.355 116.950,113.900 116.866 C 114.889 116.714,115.057 116.599,114.283 116.603 C 113.963 116.605,113.565 116.692,113.400 116.797 M328.428 117.200 C 328.428 117.365,328.505 117.680,328.600 117.900 C 328.708 118.152,328.772 118.189,328.772 118.000 C 328.772 117.835,328.695 117.520,328.600 117.300 C 328.492 117.048,328.428 117.011,328.428 117.200 M101.392 117.814 L 100.700 118.429 101.450 117.891 C 102.113 117.415,102.328 117.200,102.142 117.200 C 102.111 117.200,101.773 117.476,101.392 117.814 M328.538 120.005 C 328.465 120.277,328.413 120.725,328.423 121.000 C 328.435 121.359,328.492 121.278,328.625 120.713 C 328.828 119.847,328.750 119.212,328.538 120.005 M310.325 121.908 C 310.256 122.086,310.208 122.383,310.217 122.566 C 310.227 122.750,310.314 122.635,310.411 122.310 C 310.599 121.679,310.532 121.366,310.325 121.908 M210.725 122.508 C 210.656 122.686,210.608 122.983,210.617 123.166 C 210.627 123.350,210.714 123.235,210.811 122.910 C 210.999 122.279,210.932 121.966,210.725 122.508 M56.747 123.700 C 56.806 124.360,56.888 124.938,56.928 124.983 C 57.076 125.154,56.966 123.285,56.805 122.900 C 56.704 122.658,56.681 122.975,56.747 123.700 M99.697 124.850 L 97.500 127.100 99.750 124.903 C 100.988 123.695,102.000 122.683,102.000 122.653 C 102.000 122.509,101.737 122.760,99.697 124.850 M168.100 124.104 C 168.320 124.283,168.680 124.518,168.900 124.626 L 169.300 124.822 168.900 124.496 C 168.680 124.317,168.320 124.082,168.100 123.974 L 167.700 123.778 168.100 124.104 M210.325 124.308 C 210.256 124.486,210.208 124.783,210.217 124.966 C 210.227 125.150,210.314 125.035,210.411 124.710 C 210.599 124.079,210.532 123.766,210.325 124.308 M310.214 124.817 C 310.222 125.192,310.306 125.680,310.401 125.900 C 310.513 126.157,310.534 125.943,310.459 125.300 C 310.322 124.111,310.194 123.860,310.214 124.817 M234.447 132.184 C 234.405 138.534,234.364 139.312,234.057 139.684 L 233.715 140.100 234.160 139.692 L 234.605 139.284 234.550 132.192 L 234.495 125.100 234.447 132.184 M326.772 125.550 C 326.197 126.245,325.953 126.600,326.052 126.600 C 326.107 126.600,326.393 126.285,326.686 125.900 C 327.231 125.186,327.297 124.916,326.772 125.550 M93.307 125.917 C 93.121 126.202,93.002 126.469,93.045 126.511 C 93.087 126.553,93.279 126.320,93.472 125.994 C 93.903 125.264,93.774 125.204,93.307 125.917 M191.792 126.216 L 191.100 126.832 191.744 126.406 C 192.315 126.030,192.747 125.600,192.554 125.600 C 192.516 125.600,192.173 125.877,191.792 126.216 M57.250 126.900 C 57.253 127.340,57.294 127.496,57.341 127.248 C 57.389 126.999,57.387 126.639,57.337 126.448 C 57.287 126.256,57.248 126.460,57.250 126.900 M294.800 126.655 C 294.800 126.942,294.894 127.234,295.008 127.305 C 295.144 127.389,295.169 127.238,295.080 126.867 C 294.896 126.100,294.800 126.028,294.800 126.655 M343.239 132.600 C 343.191 139.552,343.135 139.961,342.198 140.221 C 341.766 140.342,341.756 140.363,342.119 140.380 C 343.278 140.435,343.657 136.632,343.350 128.000 C 343.313 126.955,343.263 129.025,343.239 132.600 M271.162 126.750 C 272.847 126.783,275.547 126.783,277.162 126.750 C 278.778 126.716,277.400 126.689,274.100 126.689 C 270.800 126.689,269.478 126.716,271.162 126.750 M157.116 128.254 C 156.809 128.829,156.649 129.210,156.760 129.100 C 157.049 128.814,157.834 127.367,157.747 127.280 C 157.707 127.240,157.423 127.678,157.116 128.254 M178.900 128.200 C 179.120 128.295,179.480 128.372,179.700 128.372 L 180.100 128.372 179.700 128.200 C 179.480 128.105,179.120 128.028,178.900 128.028 L 178.500 128.028 178.900 128.200 M185.500 128.200 L 185.100 128.372 185.500 128.362 C 185.720 128.357,186.170 128.284,186.500 128.200 L 187.100 128.047 186.500 128.038 C 186.170 128.032,185.720 128.105,185.500 128.200 M208.739 128.903 C 208.556 129.286,208.448 129.600,208.498 129.600 C 208.635 129.600,209.242 128.375,209.151 128.284 C 209.107 128.241,208.922 128.519,208.739 128.903 M57.646 129.000 C 57.646 129.385,57.688 129.542,57.738 129.350 C 57.788 129.157,57.788 128.843,57.738 128.650 C 57.688 128.458,57.646 128.615,57.646 129.000 M91.857 130.300 C 91.859 130.850,91.898 131.051,91.944 130.747 C 91.989 130.443,91.988 129.993,91.941 129.747 C 91.893 129.501,91.856 129.750,91.857 130.300 M57.929 130.400 C 58.087 131.263,58.201 131.425,58.197 130.783 C 58.195 130.518,58.105 130.165,57.997 130.000 C 57.859 129.789,57.839 129.908,57.929 130.400 M155.921 130.716 C 155.757 131.143,155.773 131.848,155.953 132.131 C 156.034 132.258,156.100 131.920,156.100 131.381 C 156.100 130.291,156.094 130.267,155.921 130.716 M314.502 130.603 C 314.569 130.711,314.903 130.800,315.245 130.800 C 316.001 130.800,315.924 130.700,315.040 130.532 C 314.628 130.453,314.426 130.480,314.502 130.603 M318.700 130.600 L 318.100 130.753 318.738 130.776 C 319.089 130.789,319.432 130.710,319.500 130.600 C 319.637 130.379,319.570 130.379,318.700 130.600 M290.073 132.500 C 290.074 133.600,290.107 134.024,290.148 133.443 C 290.188 132.862,290.188 131.962,290.147 131.443 C 290.106 130.924,290.073 131.400,290.073 132.500 M94.100 131.638 L 93.700 132.052 94.139 131.825 C 94.601 131.586,94.937 131.192,94.662 131.212 C 94.573 131.218,94.320 131.410,94.100 131.638 M92.184 131.666 C 92.616 132.209,93.083 132.399,93.411 132.167 C 93.649 131.999,93.640 131.981,93.363 132.070 C 93.177 132.129,92.772 131.983,92.463 131.744 C 92.060 131.434,91.980 131.411,92.184 131.666 M58.400 132.288 C 58.400 132.557,58.474 132.822,58.564 132.878 C 58.654 132.933,58.689 132.714,58.641 132.389 C 58.536 131.675,58.400 131.617,58.400 132.288 M205.553 133.105 C 205.142 133.487,204.877 133.800,204.964 133.800 C 205.051 133.800,205.427 133.485,205.800 133.100 C 206.671 132.202,206.521 132.205,205.553 133.105 M156.290 132.785 C 156.355 132.889,156.997 133.387,157.717 133.890 C 158.438 134.394,158.974 134.720,158.910 134.615 C 158.845 134.511,158.203 134.013,157.483 133.510 C 156.762 133.006,156.226 132.680,156.290 132.785 M246.800 137.855 C 246.800 138.362,246.879 138.825,246.975 138.885 C 247.136 138.984,247.039 137.205,246.873 137.017 C 246.833 136.971,246.800 137.348,246.800 137.855 M300.192 137.850 C 301.020 138.733,301.200 138.892,301.200 138.742 C 301.200 138.710,300.772 138.282,300.250 137.792 L 299.300 136.900 300.192 137.850 M230.600 140.200 L 227.700 140.317 230.538 140.358 C 232.261 140.384,233.425 140.321,233.500 140.200 C 233.568 140.090,233.596 140.019,233.562 140.042 C 233.528 140.064,232.195 140.136,230.600 140.200 M248.410 140.211 C 248.678 140.380,250.171 140.491,249.983 140.328 C 249.938 140.288,249.500 140.204,249.010 140.141 C 248.435 140.068,248.223 140.092,248.410 140.211 M332.000 140.203 C 332.165 140.308,332.563 140.395,332.883 140.397 C 333.657 140.401,333.489 140.286,332.500 140.134 C 331.955 140.050,331.796 140.072,332.000 140.203 M251.350 140.348 C 252.038 140.387,253.163 140.387,253.850 140.348 C 254.538 140.309,253.975 140.277,252.600 140.277 C 251.225 140.277,250.663 140.309,251.350 140.348 M265.461 140.549 C 266.649 140.585,268.539 140.585,269.661 140.549 C 270.782 140.513,269.810 140.484,267.500 140.485 C 265.190 140.485,264.272 140.514,265.461 140.549 M172.000 140.997 C 172.165 141.105,172.518 141.195,172.783 141.197 C 173.425 141.201,173.263 141.087,172.400 140.929 C 171.908 140.839,171.789 140.859,172.000 140.997 M191.900 141.000 C 191.346 141.141,191.339 141.154,191.800 141.173 C 192.075 141.185,192.435 141.107,192.600 141.000 C 192.940 140.780,192.764 140.780,191.900 141.000 M318.400 141.000 C 317.708 141.146,317.707 141.148,318.300 141.171 C 318.630 141.183,319.035 141.107,319.200 141.000 C 319.533 140.785,319.422 140.785,318.400 141.000 M189.300 141.400 L 188.100 141.533 189.200 141.552 C 189.805 141.563,190.480 141.495,190.700 141.400 C 191.146 141.208,191.032 141.208,189.300 141.400 M315.900 141.400 L 314.900 141.537 315.800 141.555 C 316.295 141.564,316.880 141.495,317.100 141.400 C 317.557 141.204,317.331 141.204,315.900 141.400 M174.754 141.545 C 175.113 141.589,175.653 141.589,175.954 141.543 C 176.254 141.497,175.960 141.461,175.300 141.462 C 174.640 141.463,174.394 141.500,174.754 141.545 M306.250 141.538 C 306.443 141.588,306.757 141.588,306.950 141.538 C 307.143 141.488,306.985 141.446,306.600 141.446 C 306.215 141.446,306.058 141.488,306.250 141.538 M178.759 141.749 C 179.672 141.786,181.112 141.786,181.959 141.748 C 182.807 141.711,182.060 141.681,180.300 141.681 C 178.540 141.681,177.847 141.712,178.759 141.749 M185.150 141.746 C 185.618 141.789,186.383 141.789,186.850 141.746 C 187.317 141.704,186.935 141.670,186.000 141.670 C 185.065 141.670,184.683 141.704,185.150 141.746 M309.550 141.949 C 310.348 141.986,311.653 141.986,312.450 141.949 C 313.248 141.911,312.595 141.879,311.000 141.879 C 309.405 141.879,308.753 141.911,309.550 141.949 M125.446 144.914 C 125.199 145.291,125.036 145.600,125.085 145.600 C 125.224 145.600,126.052 144.385,125.969 144.303 C 125.929 144.262,125.693 144.537,125.446 144.914 M123.132 147.706 C 122.490 148.424,121.340 149.549,120.577 150.206 C 119.814 150.863,119.264 151.400,119.355 151.400 C 119.600 151.400,123.073 148.118,123.803 147.196 C 124.742 146.010,124.450 146.232,123.132 147.706 M66.515 148.619 C 66.837 149.014,67.140 149.304,67.190 149.262 C 67.239 149.221,66.976 148.898,66.604 148.544 L 65.929 147.900 66.515 148.619 M68.443 150.699 C 69.071 151.349,69.615 151.840,69.650 151.791 C 69.686 151.741,69.171 151.209,68.507 150.608 L 67.300 149.517 68.443 150.699 M110.154 157.749 C 109.634 158.038,109.241 158.307,109.280 158.347 C 109.361 158.428,110.794 157.664,111.090 157.381 C 111.387 157.098,111.175 157.181,110.154 157.749 M107.650 158.917 C 107.293 159.073,107.000 159.247,107.000 159.303 C 107.000 159.407,108.403 158.864,108.573 158.694 C 108.743 158.523,108.310 158.628,107.650 158.917 M90.100 161.200 C 90.320 161.295,90.680 161.369,90.900 161.366 C 91.222 161.361,91.202 161.329,90.800 161.200 C 90.116 160.981,89.590 160.981,90.100 161.200 M99.500 161.200 L 99.100 161.372 99.500 161.383 C 99.720 161.389,100.035 161.307,100.200 161.200 C 100.598 160.943,100.098 160.943,99.500 161.200 " stroke="none" fill="#c4dcec" fill-rule="evenodd"></path><path id="path5" d="M90.789 42.950 L 90.100 43.700 90.850 43.011 C 91.263 42.632,91.600 42.294,91.600 42.261 C 91.600 42.108,91.431 42.252,90.789 42.950 M89.095 59.700 C 89.095 67.290,89.120 70.366,89.150 66.535 C 89.180 62.705,89.180 56.495,89.150 52.735 C 89.119 48.976,89.095 52.110,89.095 59.700 M102.887 52.800 C 102.887 55.605,102.915 56.752,102.949 55.350 C 102.984 53.948,102.984 51.653,102.949 50.250 C 102.915 48.848,102.887 49.995,102.887 52.800 M73.589 53.550 L 72.900 54.300 73.650 53.611 C 74.063 53.232,74.400 52.894,74.400 52.861 C 74.400 52.708,74.231 52.852,73.589 53.550 M71.889 63.000 C 71.889 66.575,71.916 68.038,71.950 66.250 C 71.983 64.463,71.983 61.538,71.950 59.750 C 71.916 57.963,71.889 59.425,71.889 63.000 M106.681 60.300 C 106.681 62.060,106.712 62.753,106.749 61.841 C 106.786 60.928,106.786 59.488,106.748 58.641 C 106.711 57.793,106.681 58.540,106.681 60.300 M102.854 58.800 C 102.854 59.295,102.893 59.498,102.941 59.250 C 102.989 59.002,102.989 58.598,102.941 58.350 C 102.893 58.102,102.854 58.305,102.854 58.800 M185.253 60.544 C 185.557 60.589,186.007 60.588,186.253 60.541 C 186.499 60.493,186.250 60.456,185.700 60.457 C 185.150 60.459,184.949 60.498,185.253 60.544 M179.352 60.941 C 179.601 60.989,179.961 60.987,180.152 60.937 C 180.344 60.887,180.140 60.848,179.700 60.850 C 179.260 60.853,179.104 60.894,179.352 60.941 M220.600 61.900 C 220.114 62.395,219.762 62.800,219.817 62.800 C 219.872 62.800,220.314 62.395,220.800 61.900 C 221.286 61.405,221.638 61.000,221.583 61.000 C 221.528 61.000,221.086 61.405,220.600 61.900 M251.250 61.350 C 252.873 61.383,255.528 61.383,257.150 61.350 C 258.772 61.316,257.445 61.288,254.200 61.288 C 250.955 61.288,249.628 61.316,251.250 61.350 M171.200 63.117 C 170.524 63.492,171.005 63.478,171.727 63.101 C 172.042 62.937,172.165 62.811,172.000 62.821 C 171.835 62.831,171.475 62.964,171.200 63.117 M246.882 66.200 C 246.882 68.125,246.912 68.913,246.949 67.950 C 246.986 66.987,246.986 65.413,246.949 64.450 C 246.912 63.488,246.882 64.275,246.882 66.200 M262.079 66.600 C 262.079 68.195,262.111 68.848,262.149 68.050 C 262.186 67.252,262.186 65.948,262.149 65.150 C 262.111 64.353,262.079 65.005,262.079 66.600 M106.654 65.400 C 106.654 65.895,106.693 66.098,106.741 65.850 C 106.789 65.603,106.789 65.198,106.741 64.950 C 106.693 64.703,106.654 64.905,106.654 65.400 M218.250 66.900 C 218.253 67.340,218.294 67.496,218.341 67.248 C 218.389 66.999,218.387 66.639,218.337 66.448 C 218.287 66.256,218.248 66.460,218.250 66.900 M120.296 88.500 C 120.296 100.270,120.321 105.056,120.350 99.135 C 120.379 93.214,120.379 83.584,120.350 77.735 C 120.321 71.886,120.296 76.730,120.296 88.500 M103.083 71.400 C 103.083 73.435,103.113 74.267,103.149 73.250 C 103.185 72.233,103.185 70.567,103.149 69.550 C 103.113 68.532,103.083 69.365,103.083 71.400 M85.450 70.900 C 85.453 71.340,85.494 71.496,85.541 71.248 C 85.589 70.999,85.587 70.639,85.537 70.448 C 85.487 70.256,85.448 70.460,85.450 70.900 M62.253 71.544 C 62.557 71.589,63.007 71.588,63.253 71.541 C 63.499 71.493,63.250 71.456,62.700 71.457 C 62.150 71.459,61.949 71.498,62.253 71.544 M85.457 73.500 C 85.459 74.050,85.498 74.251,85.544 73.947 C 85.589 73.643,85.588 73.193,85.541 72.947 C 85.493 72.701,85.456 72.950,85.457 73.500 M220.800 73.900 C 221.173 74.285,221.523 74.600,221.578 74.600 C 221.633 74.600,221.373 74.285,221.000 73.900 C 220.627 73.515,220.277 73.200,220.222 73.200 C 220.167 73.200,220.427 73.515,220.800 73.900 M89.060 75.200 C 89.060 75.805,89.097 76.052,89.143 75.750 C 89.189 75.448,89.189 74.953,89.143 74.650 C 89.097 74.348,89.060 74.595,89.060 75.200 M85.492 85.300 C 85.492 90.250,85.518 92.246,85.550 89.736 C 85.582 87.226,85.582 83.176,85.550 80.736 C 85.518 78.296,85.492 80.350,85.492 85.300 M226.154 76.545 C 226.513 76.589,227.053 76.589,227.354 76.543 C 227.654 76.497,227.360 76.461,226.700 76.462 C 226.040 76.463,225.794 76.500,226.154 76.545 M89.064 78.400 C 89.064 79.115,89.100 79.408,89.145 79.050 C 89.189 78.692,89.189 78.108,89.145 77.750 C 89.100 77.392,89.064 77.685,89.064 78.400 M56.496 95.900 C 56.496 105.580,56.520 109.569,56.550 104.765 C 56.580 99.961,56.580 92.041,56.550 87.165 C 56.520 82.289,56.496 86.220,56.496 95.900 M261.875 80.900 C 261.875 82.110,261.908 82.579,261.948 81.943 C 261.988 81.306,261.987 80.316,261.947 79.743 C 261.907 79.169,261.874 79.690,261.875 80.900 M173.054 83.200 C 173.054 83.695,173.093 83.898,173.141 83.650 C 173.189 83.403,173.189 82.998,173.141 82.750 C 173.093 82.502,173.054 82.705,173.054 83.200 M89.046 85.600 C 89.046 85.985,89.088 86.142,89.138 85.950 C 89.188 85.758,89.188 85.442,89.138 85.250 C 89.088 85.058,89.046 85.215,89.046 85.600 M247.088 91.000 C 247.088 94.025,247.116 95.263,247.150 93.750 C 247.183 92.238,247.183 89.763,247.150 88.250 C 247.116 86.738,247.088 87.975,247.088 91.000 M219.895 99.800 C 219.895 107.445,219.920 110.572,219.950 106.750 C 219.980 102.927,219.980 96.672,219.950 92.850 C 219.920 89.027,219.895 92.155,219.895 99.800 M174.800 88.263 C 174.800 88.297,175.093 88.590,175.450 88.913 L 176.100 89.500 175.513 88.850 C 174.965 88.244,174.800 88.108,174.800 88.263 M68.462 92.500 C 68.463 93.160,68.500 93.406,68.545 93.046 C 68.589 92.687,68.589 92.147,68.543 91.846 C 68.497 91.546,68.461 91.840,68.462 92.500 M103.073 93.700 C 103.074 94.800,103.107 95.224,103.148 94.643 C 103.188 94.062,103.188 93.162,103.147 92.643 C 103.106 92.124,103.073 92.600,103.073 93.700 M315.350 94.141 C 315.598 94.189,316.003 94.189,316.250 94.141 C 316.498 94.093,316.295 94.054,315.800 94.054 C 315.305 94.054,315.103 94.093,315.350 94.141 M321.600 94.079 C 321.600 94.122,321.952 94.192,322.383 94.233 C 322.814 94.274,323.124 94.238,323.071 94.154 C 322.976 94.000,321.600 93.930,321.600 94.079 M89.060 95.400 C 89.060 96.005,89.097 96.252,89.143 95.950 C 89.189 95.648,89.189 95.153,89.143 94.850 C 89.097 94.548,89.060 94.795,89.060 95.400 M312.850 94.538 C 313.043 94.588,313.358 94.588,313.550 94.538 C 313.743 94.488,313.585 94.446,313.200 94.446 C 312.815 94.446,312.658 94.488,312.850 94.538 M68.671 97.300 C 68.670 98.290,68.704 98.720,68.746 98.256 C 68.788 97.792,68.789 96.982,68.747 96.456 C 68.706 95.930,68.672 96.310,68.671 97.300 M138.856 95.747 C 139.382 95.789,140.192 95.788,140.656 95.746 C 141.120 95.704,140.690 95.670,139.700 95.671 C 138.710 95.672,138.330 95.706,138.856 95.747 M261.857 96.500 C 261.859 97.050,261.898 97.251,261.944 96.947 C 261.989 96.643,261.988 96.193,261.941 95.947 C 261.893 95.701,261.856 95.950,261.857 96.500 M103.400 96.176 C 103.400 96.371,104.178 97.099,104.261 96.982 C 104.294 96.937,104.113 96.701,103.860 96.457 C 103.607 96.214,103.400 96.087,103.400 96.176 M247.050 97.500 C 247.053 97.940,247.094 98.096,247.141 97.848 C 247.189 97.599,247.187 97.239,247.137 97.048 C 247.087 96.856,247.048 97.060,247.050 97.500 M144.464 100.000 C 144.464 100.715,144.500 101.008,144.545 100.650 C 144.589 100.293,144.589 99.708,144.545 99.350 C 144.500 98.993,144.464 99.285,144.464 100.000 M128.589 100.750 L 127.900 101.500 128.650 100.811 C 129.348 100.169,129.492 100.000,129.339 100.000 C 129.306 100.000,128.968 100.338,128.589 100.750 M328.854 102.000 C 328.854 102.495,328.893 102.697,328.941 102.450 C 328.989 102.203,328.989 101.798,328.941 101.550 C 328.893 101.303,328.854 101.505,328.854 102.000 M204.200 102.463 C 204.200 102.497,204.493 102.790,204.850 103.113 L 205.500 103.700 204.913 103.050 C 204.365 102.444,204.200 102.308,204.200 102.463 M246.894 117.400 C 246.894 124.715,246.919 127.708,246.950 124.050 C 246.980 120.392,246.980 114.408,246.950 110.750 C 246.919 107.093,246.894 110.085,246.894 117.400 M315.853 105.744 C 316.157 105.789,316.607 105.788,316.853 105.741 C 317.099 105.693,316.850 105.656,316.300 105.657 C 315.750 105.659,315.549 105.698,315.853 105.744 M312.750 105.941 C 312.998 105.989,313.403 105.989,313.650 105.941 C 313.898 105.893,313.695 105.854,313.200 105.854 C 312.705 105.854,312.503 105.893,312.750 105.941 M262.092 116.300 C 262.093 121.580,262.118 123.711,262.150 121.036 C 262.181 118.361,262.181 114.041,262.150 111.436 C 262.118 108.831,262.092 111.020,262.092 116.300 M299.687 111.450 L 299.100 112.100 299.750 111.513 C 300.356 110.965,300.492 110.800,300.337 110.800 C 300.303 110.800,300.010 111.093,299.687 111.450 M114.550 112.141 C 114.797 112.189,115.203 112.189,115.450 112.141 C 115.697 112.093,115.495 112.054,115.000 112.054 C 114.505 112.054,114.303 112.093,114.550 112.141 M234.283 116.900 C 234.284 118.990,234.313 119.818,234.349 118.740 C 234.385 117.661,234.385 115.951,234.349 114.940 C 234.313 113.928,234.283 114.810,234.283 116.900 M56.469 115.100 C 56.469 115.980,56.504 116.315,56.547 115.845 C 56.589 115.374,56.588 114.654,56.545 114.245 C 56.502 113.835,56.468 114.220,56.469 115.100 M211.276 116.700 C 211.277 118.020,211.309 118.534,211.348 117.842 C 211.387 117.150,211.387 116.070,211.348 115.442 C 211.308 114.814,211.276 115.380,211.276 116.700 M325.450 115.543 C 325.753 115.589,326.248 115.589,326.550 115.543 C 326.853 115.497,326.605 115.460,326.000 115.460 C 325.395 115.460,325.148 115.497,325.450 115.543 M328.867 119.000 C 328.867 119.825,328.903 120.163,328.946 119.750 C 328.989 119.338,328.989 118.663,328.946 118.250 C 328.903 117.838,328.867 118.175,328.867 119.000 M195.246 120.800 C 195.246 121.185,195.288 121.343,195.338 121.150 C 195.388 120.958,195.388 120.642,195.338 120.450 C 195.288 120.258,195.246 120.415,195.246 120.800 M104.700 120.800 C 104.370 121.019,104.190 121.196,104.300 121.194 C 104.501 121.191,105.588 120.412,105.400 120.406 C 105.345 120.404,105.030 120.581,104.700 120.800 M210.846 121.200 C 210.846 121.585,210.888 121.743,210.938 121.550 C 210.988 121.358,210.988 121.043,210.938 120.850 C 210.888 120.658,210.846 120.815,210.846 121.200 M162.150 121.141 C 162.398 121.189,162.803 121.189,163.050 121.141 C 163.298 121.093,163.095 121.054,162.600 121.054 C 162.105 121.054,161.903 121.093,162.150 121.141 M294.866 123.500 C 294.867 124.270,294.903 124.560,294.946 124.146 C 294.989 123.731,294.989 123.101,294.944 122.746 C 294.900 122.390,294.865 122.730,294.866 123.500 M99.996 124.750 L 98.300 126.500 100.050 124.804 C 101.675 123.230,101.891 123.000,101.746 123.000 C 101.716 123.000,100.928 123.788,99.996 124.750 M219.891 131.200 C 219.891 135.655,219.918 137.478,219.950 135.250 C 219.982 133.023,219.982 129.378,219.950 127.150 C 219.918 124.923,219.891 126.745,219.891 131.200 M234.286 127.800 C 234.286 130.385,234.315 131.442,234.349 130.150 C 234.384 128.858,234.384 126.743,234.349 125.450 C 234.315 124.158,234.286 125.215,234.286 127.800 M269.950 126.950 C 272.728 126.981,277.273 126.981,280.050 126.950 C 282.828 126.918,280.555 126.893,275.000 126.893 C 269.445 126.893,267.173 126.918,269.950 126.950 M295.246 127.600 C 295.246 127.985,295.288 128.143,295.338 127.950 C 295.388 127.758,295.388 127.442,295.338 127.250 C 295.288 127.058,295.246 127.215,295.246 127.600 M188.100 128.000 L 187.500 128.153 188.038 128.176 C 188.334 128.189,188.632 128.110,188.700 128.000 C 188.768 127.890,188.796 127.811,188.762 127.824 C 188.728 127.837,188.430 127.916,188.100 128.000 M180.950 128.549 C 181.858 128.586,183.343 128.586,184.250 128.549 C 185.158 128.512,184.415 128.481,182.600 128.481 C 180.785 128.481,180.043 128.512,180.950 128.549 M311.200 128.663 C 311.200 128.697,311.493 128.990,311.850 129.313 L 312.500 129.900 311.913 129.250 C 311.365 128.644,311.200 128.508,311.200 128.663 M343.086 134.300 C 343.086 136.940,343.115 137.992,343.149 136.639 C 343.184 135.285,343.184 133.125,343.149 131.839 C 343.114 130.552,343.086 131.660,343.086 134.300 M289.860 131.400 C 289.860 132.005,289.897 132.253,289.943 131.950 C 289.989 131.648,289.989 131.153,289.943 130.850 C 289.897 130.547,289.860 130.795,289.860 131.400 M318.152 130.941 C 318.401 130.989,318.761 130.987,318.952 130.937 C 319.144 130.887,318.940 130.848,318.500 130.850 C 318.060 130.853,317.904 130.894,318.152 130.941 M289.860 133.800 C 289.860 134.405,289.897 134.653,289.943 134.350 C 289.989 134.047,289.989 133.553,289.943 133.250 C 289.897 132.947,289.860 133.195,289.860 133.800 M203.687 134.650 L 203.100 135.300 203.750 134.713 C 204.108 134.390,204.400 134.097,204.400 134.063 C 204.400 133.908,204.235 134.044,203.687 134.650 M159.987 135.162 C 160.255 135.379,160.750 135.709,161.087 135.895 L 161.700 136.233 161.213 135.838 C 160.945 135.621,160.450 135.291,160.113 135.105 L 159.500 134.767 159.987 135.162 M265.750 140.349 C 266.657 140.386,268.143 140.386,269.050 140.349 C 269.957 140.312,269.215 140.281,267.400 140.281 C 265.585 140.281,264.843 140.312,265.750 140.349 M180.261 141.549 C 181.560 141.584,183.630 141.584,184.861 141.549 C 186.093 141.514,185.030 141.486,182.500 141.486 C 179.970 141.486,178.963 141.515,180.261 141.549 M127.192 142.212 C 126.952 142.548,126.790 142.856,126.831 142.897 C 126.871 142.938,127.107 142.663,127.354 142.286 C 127.912 141.435,127.785 141.378,127.192 142.212 M121.687 149.050 L 121.100 149.700 121.750 149.113 C 122.108 148.790,122.400 148.497,122.400 148.463 C 122.400 148.308,122.235 148.444,121.687 149.050 M69.800 151.663 C 69.800 151.697,70.093 151.990,70.450 152.313 L 71.100 152.900 70.513 152.250 C 69.965 151.644,69.800 151.508,69.800 151.663 M89.352 160.941 C 89.601 160.989,89.961 160.987,90.152 160.937 C 90.344 160.887,90.140 160.848,89.700 160.850 C 89.260 160.853,89.104 160.894,89.352 160.941 M100.250 160.938 C 100.442 160.988,100.758 160.988,100.950 160.938 C 101.142 160.888,100.985 160.846,100.600 160.846 C 100.215 160.846,100.058 160.888,100.250 160.938 M93.460 161.349 C 94.428 161.386,95.958 161.386,96.860 161.349 C 97.762 161.312,96.970 161.282,95.100 161.282 C 93.230 161.282,92.492 161.312,93.460 161.349 " stroke="none" fill="#7cacdc" fill-rule="evenodd"></path></g></svg>